<svg width="208" height="209" viewBox="0 0 208 209" fill="none" xmlns="http://www.w3.org/2000/svg">
<path d="M50.036 203.247H44.905L44.394 191.375H49.525L50.036 203.247Z" fill="#9F5B53"/>
<path d="M80.829 203.247H75.698L73.122 191.375H78.253L80.829 203.247Z" fill="#9F5B53"/>
<path d="M75.334 202.673H81.095C81.1974 202.672 81.2971 202.706 81.3774 202.77C81.4576 202.833 81.5136 202.923 81.536 203.023L82.551 207.58C82.5742 207.691 82.572 207.806 82.5445 207.916C82.517 208.027 82.4651 208.129 82.3924 208.217C82.3197 208.304 82.2283 208.374 82.1249 208.422C82.0214 208.469 81.9087 208.492 81.795 208.49C79.786 208.455 78.806 208.336 76.272 208.336C74.718 208.336 71.505 208.504 69.349 208.504C67.193 208.504 66.92 206.369 67.795 206.18C71.75 205.312 73.241 204.122 74.501 202.988C74.7293 202.782 75.0267 202.669 75.334 202.673Z" fill="#263238"/>
<path d="M44.94 202.673H50.54C50.6425 202.672 50.7421 202.706 50.8224 202.77C50.9026 202.833 50.9586 202.923 50.981 203.023L51.989 207.58C52.0146 207.689 52.0148 207.804 51.9895 207.914C51.9643 208.024 51.9144 208.126 51.8436 208.214C51.7727 208.302 51.6828 208.372 51.5806 208.42C51.4785 208.468 51.3668 208.491 51.254 208.49C49.231 208.455 46.312 208.336 43.771 208.336C40.803 208.336 38.241 208.504 34.762 208.504C32.662 208.504 32.067 206.369 32.949 206.18C36.96 205.298 40.236 205.207 43.708 203.072C44.0721 202.824 44.4997 202.685 44.94 202.673Z" fill="#263238"/>
<path d="M41.167 35.6597L34.244 32.9227C34.244 32.9227 26.285 49.1837 23.744 50.0027C20.335 51.1227 13.328 54.2027 9.09304 54.8117C8.55404 55.5117 7.69304 57.6117 7.86804 58.3817C13.706 60.2857 26.145 57.7517 28.721 55.7497C34.636 51.1857 41.167 35.6597 41.167 35.6597Z" fill="#9F5B53"/>
<path d="M43.0291 31.9706C44.7581 36.5626 36.0291 50.0726 36.0291 50.0726L25.774 44.4726C27.3118 40.2701 29.2972 36.2453 31.6961 32.4676C35.3011 27.0916 41.1321 26.9726 43.0291 31.9706Z" fill="#FFB347"/>
<path opacity="0.6" d="M43.0291 31.9706C44.7581 36.5626 36.0291 50.0726 36.0291 50.0726L25.774 44.4726C27.3118 40.2701 29.2972 36.2453 31.6961 32.4676C35.3011 27.0916 41.1321 26.9726 43.0291 31.9706Z" fill="#FAFAFA"/>
<path d="M43.183 32.5727C41.174 31.6207 38.92 32.4187 36.652 36.2057C34.384 39.9927 32.557 46.3347 32.396 48.1407L36.001 50.0937C36.001 50.0937 44.086 37.5987 43.183 32.5727Z" fill="#FFB347"/>
<path opacity="0.4" d="M43.183 32.5727C41.174 31.6207 38.92 32.4187 36.652 36.2057C34.384 39.9927 32.557 46.3347 32.396 48.1407L36.001 50.0937C36.001 50.0937 44.086 37.5987 43.183 32.5727Z" fill="#FAFAFA"/>
<path d="M9.98895 54.7627L4.20695 52.3827L2.24695 58.6407C4.56711 58.9913 6.92679 58.9913 9.24695 58.6407L9.98895 54.7627Z" fill="#9F5B53"/>
<path d="M0 52.2357L0.0979996 56.3937L2.247 58.6407L4.207 52.3897L0 52.2357Z" fill="#9F5B53"/>
<path d="M44.401 191.375L44.66 197.5H49.791L49.525 191.375H44.401Z" fill="#8A4743"/>
<path d="M78.253 191.375H73.122L74.452 197.5H79.583L78.253 191.375Z" fill="#8A4743"/>
<path d="M36.939 28.4637C36.939 28.4637 30.884 43.9477 36.638 72.7947H64.064C64.253 68.5947 61.607 48.0357 65.674 28.1977C62.6409 27.6126 59.5732 27.2245 56.49 27.0357C52.6059 26.8115 48.7121 26.8115 44.828 27.0357C42.1651 27.3051 39.5274 27.7826 36.939 28.4637Z" fill="#FFB347"/>
<path opacity="0.6" d="M36.939 28.4637C36.939 28.4637 30.884 43.9477 36.638 72.7947H64.064C64.253 68.5947 61.607 48.0357 65.674 28.1977C62.6409 27.6126 59.5732 27.2245 56.49 27.0357C52.6059 26.8115 48.7121 26.8115 44.828 27.0357C42.1651 27.3051 39.5274 27.7826 36.939 28.4637Z" fill="#FAFAFA"/>
<path d="M59.71 33.0977C59.255 36.3597 60.284 44.1717 63.392 53.2017C63.3469 45.4842 63.9816 37.7777 65.289 30.1717V30.1296C63.483 29.9476 60.151 30.0387 59.71 33.0977Z" fill="#FFB347"/>
<path opacity="0.4" d="M59.71 33.0977C59.255 36.3597 60.284 44.1717 63.392 53.2017C63.3469 45.4842 63.9816 37.7777 65.289 30.1717V30.1296C63.483 29.9476 60.151 30.0387 59.71 33.0977Z" fill="#FAFAFA"/>
<path d="M43.057 27.2387C43.631 27.1617 44.226 27.0917 44.828 27.0357C48.7121 26.8115 52.6059 26.8115 56.49 27.0357C56.98 27.0357 57.47 27.0917 57.96 27.1337L57.792 27.5537C57.715 27.7427 55.846 32.2437 47.992 32.2437C46.963 32.2437 43.848 32.2437 42.868 30.1437C42.6811 29.676 42.6011 29.1724 42.6338 28.6698C42.6665 28.1672 42.8111 27.6783 43.057 27.2387Z" fill="#FAFAFA"/>
<path d="M54.964 16.1296C54.229 19.8816 53.865 24.5296 56.49 27.0356C56.49 27.0356 54.978 30.8436 48.006 30.8436C41.636 30.8436 44.828 27.0356 44.828 27.0356C49.028 26.0416 48.79 20.8686 48.062 17.9356L54.964 16.1296Z" fill="#9F5B53"/>
<path d="M54.474 19.6157L49.532 17.5647L48.895 17.7327C49.0501 18.5968 49.3111 19.4384 49.672 20.2387C50.8201 22.2562 52.6957 23.7586 54.915 24.4387C54.463 22.8736 54.3134 21.2368 54.474 19.6157Z" fill="#8A4743"/>
<path d="M61.971 16.8857C61.1082 17.8311 59.9098 18.4014 58.632 18.4747C56.938 18.5517 56.469 16.9417 57.232 15.5417C57.932 14.2817 59.682 12.7417 61.229 13.3087C61.5674 13.4402 61.8675 13.6543 62.1021 13.9315C62.3366 14.2086 62.4981 14.5401 62.5718 14.8956C62.6456 15.2511 62.6292 15.6194 62.5243 15.967C62.4194 16.3145 62.2292 16.6304 61.971 16.8857Z" fill="#8A4743"/>
<path d="M61.138 5.07673C63.448 6.55373 63.588 13.7637 60.13 14.8137C56.672 15.8637 56.784 2.26273 61.138 5.07673Z" fill="#263238"/>
<path d="M47.943 8.77268C47.383 13.8337 46.802 16.7667 48.888 19.7697C52.017 24.2917 58.597 23.0737 60.655 18.2787C62.51 13.9667 63.112 6.42068 58.555 3.57868C57.5534 2.94764 56.4071 2.58315 55.225 2.51983C54.0428 2.45651 52.8641 2.69645 51.8008 3.21688C50.7375 3.7373 49.825 4.52093 49.1498 5.49331C48.4745 6.4657 48.0591 7.59456 47.943 8.77268Z" fill="#9F5B53"/>
<path d="M47.103 11.8807C48.454 12.5807 50.134 9.27668 50.484 5.81868C52.78 7.99568 65.884 7.72268 63.903 4.57268C60.837 -0.327321 49.679 -1.37732 47.936 1.84968C44.751 1.98968 44.03 10.3477 47.103 11.8807Z" fill="#263238"/>
<path d="M44.73 13.8967C45.2174 15.0811 46.1535 16.0247 47.334 16.5217C48.909 17.1587 49.889 15.8217 49.616 14.2187C49.364 12.8187 48.251 10.7187 46.599 10.7747C46.2377 10.788 45.8856 10.8914 45.5744 11.0755C45.2633 11.2595 45.0031 11.5184 44.8174 11.8286C44.6317 12.1387 44.5265 12.4903 44.5112 12.8515C44.4959 13.2127 44.5711 13.5719 44.73 13.8967Z" fill="#9F5B53"/>
<path d="M36.638 72.7947C36.638 72.7947 35.938 111.141 36.484 126.779C37.065 143.047 42.749 196.31 42.749 196.31H51.436C51.436 196.31 51.758 143.999 52.136 128.018C52.556 110.602 54.663 72.7947 54.663 72.7947H36.638Z" fill="#FFB347"/>
<path d="M52.01 193.65C52.052 193.65 52.01 196.492 52.01 196.492H41.993L41.573 193.3L52.01 193.65Z" fill="#FFB347"/>
<path opacity="0.6" d="M52.01 193.65C52.052 193.65 52.01 196.492 52.01 196.492H41.993L41.573 193.3L52.01 193.65Z" fill="#FAFAFA"/>
<path d="M48.636 82.9727C48.797 101.999 49.945 113.556 52.297 122.873C52.598 113.773 53.165 101.796 53.697 91.8277L48.636 82.9727Z" fill="#FFB347"/>
<path opacity="0.2" d="M48.636 82.9727C48.797 101.999 49.945 113.556 52.297 122.873C52.598 113.773 53.165 101.796 53.697 91.8277L48.636 82.9727Z" fill="black"/>
<path d="M46.368 72.7947C46.368 72.7947 52.185 111.995 55.384 126.695C58.884 142.795 72.065 196.338 72.065 196.338H81.459C81.459 196.338 72.765 144.076 70.77 128.158C68.6 110.875 64.064 72.8577 64.064 72.8577L46.368 72.7947Z" fill="#FFB347"/>
<path d="M81.459 193.867C81.494 193.867 81.928 196.492 81.928 196.492H71.603L70.686 193.475L81.459 193.867Z" fill="#FFB347"/>
<path opacity="0.6" d="M81.459 193.867C81.494 193.867 81.928 196.492 81.928 196.492H71.603L70.686 193.475L81.459 193.867Z" fill="#FAFAFA"/>
<path d="M77.672 190.773C77.6508 190.771 77.6308 190.762 77.6145 190.748C77.5983 190.735 77.5866 190.716 77.581 190.696C77.504 190.22 69.664 143.033 67.872 128.732C65.926 113.213 61.824 78.7937 61.782 78.4437C61.781 78.4326 61.7823 78.4215 61.7856 78.4109C61.789 78.4004 61.7944 78.3906 61.8015 78.3821C61.8087 78.3737 61.8175 78.3667 61.8273 78.3617C61.8372 78.3566 61.8479 78.3535 61.859 78.3526C61.8821 78.3506 61.905 78.3574 61.9232 78.3717C61.9414 78.3861 61.9535 78.4068 61.957 78.4297C61.999 78.7727 66.094 113.192 68.047 128.711C69.839 143.012 77.679 190.192 77.756 190.668C77.758 190.679 77.7578 190.69 77.7553 190.701C77.7528 190.712 77.7482 190.722 77.7417 190.731C77.7352 190.741 77.7269 190.748 77.7173 190.754C77.7077 190.76 77.6971 190.764 77.686 190.766L77.672 190.773Z" fill="#FFB347"/>
<path opacity="0.2" d="M77.672 190.773C77.6508 190.771 77.6308 190.762 77.6145 190.748C77.5983 190.735 77.5866 190.716 77.581 190.696C77.504 190.22 69.664 143.033 67.872 128.732C65.926 113.213 61.824 78.7937 61.782 78.4437C61.781 78.4326 61.7823 78.4215 61.7856 78.4109C61.789 78.4004 61.7944 78.3906 61.8015 78.3821C61.8087 78.3737 61.8175 78.3667 61.8273 78.3617C61.8372 78.3566 61.8479 78.3535 61.859 78.3526C61.8821 78.3506 61.905 78.3574 61.9232 78.3717C61.9414 78.3861 61.9535 78.4068 61.957 78.4297C61.999 78.7727 66.094 113.192 68.047 128.711C69.839 143.012 77.679 190.192 77.756 190.668C77.758 190.679 77.7578 190.69 77.7553 190.701C77.7528 190.712 77.7482 190.722 77.7417 190.731C77.7352 190.741 77.7269 190.748 77.7173 190.754C77.7077 190.76 77.6971 190.764 77.686 190.766L77.672 190.773Z" fill="black"/>
<path d="M55.3 11.4887C55.223 11.8947 55.384 12.2587 55.65 12.3077C55.916 12.3567 56.189 12.0627 56.259 11.6497C56.329 11.2367 56.175 10.8797 55.909 10.8307C55.643 10.7817 55.384 11.0757 55.3 11.4887Z" fill="#263238"/>
<path d="M59.906 12.2726C59.836 12.6786 59.99 13.0426 60.256 13.0916C60.522 13.1406 60.795 12.8466 60.872 12.4336C60.949 12.0206 60.781 11.6636 60.515 11.6146C60.249 11.5656 59.976 11.8736 59.906 12.2726Z" fill="#263238"/>
<path d="M58.401 12.2307C58.674 13.5597 59.1261 14.8454 59.745 16.0527C59.4305 16.1996 59.0876 16.2758 58.7405 16.2758C58.3934 16.2758 58.0505 16.1996 57.736 16.0527L58.401 12.2307Z" fill="#892B29"/>
<path d="M56.357 17.0046C56.3884 17.0089 56.4202 17.0011 56.4462 16.983C56.4721 16.9648 56.4902 16.9376 56.497 16.9066C56.5 16.891 56.4999 16.8749 56.4965 16.8593C56.4932 16.8437 56.4868 16.8289 56.4776 16.8159C56.4685 16.8028 56.4568 16.7917 56.4433 16.7833C56.4298 16.7748 56.4147 16.7691 56.399 16.7666C55.8922 16.6922 55.4099 16.5003 54.9905 16.2061C54.5712 15.912 54.2265 15.5238 53.984 15.0726C53.9703 15.0436 53.9459 15.0209 53.916 15.0092C53.8861 14.9974 53.8528 14.9976 53.823 15.0096C53.808 15.0157 53.7944 15.0248 53.783 15.0363C53.7716 15.0478 53.7627 15.0615 53.7568 15.0766C53.7509 15.0916 53.7482 15.1077 53.7487 15.1239C53.7493 15.1401 53.7531 15.156 53.76 15.1706C54.0174 15.6596 54.3869 16.0807 54.8382 16.3995C55.2896 16.7183 55.8101 16.9256 56.357 17.0046Z" fill="#263238"/>
<path d="M54.166 9.75974C54.2035 9.76627 54.242 9.76398 54.2785 9.75304C54.3149 9.74211 54.3483 9.72283 54.376 9.69674C54.593 9.48422 54.8566 9.32542 55.1459 9.23304C55.4352 9.14066 55.7421 9.11727 56.042 9.16474C56.1042 9.17968 56.1697 9.16976 56.2246 9.13706C56.2796 9.10437 56.3195 9.05149 56.336 8.98974C56.3455 8.95892 56.3483 8.92648 56.3445 8.89449C56.3406 8.8625 56.3301 8.83167 56.3136 8.80398C56.2972 8.77629 56.2751 8.75236 56.2488 8.73372C56.2225 8.71508 56.1926 8.70214 56.161 8.69574C55.785 8.62769 55.3982 8.65064 55.0328 8.76268C54.6675 8.87471 54.3343 9.07258 54.061 9.33974C54.0157 9.38671 53.9904 9.44945 53.9904 9.51474C53.9904 9.58002 54.0157 9.64276 54.061 9.68974C54.0906 9.72039 54.1264 9.74428 54.166 9.75974Z" fill="#263238"/>
<path d="M62.258 11.0057C62.2927 11.0127 62.3283 11.0127 62.363 11.0057C62.3934 10.9948 62.4213 10.9779 62.4452 10.9562C62.4691 10.9344 62.4884 10.9081 62.502 10.8788C62.5157 10.8495 62.5234 10.8178 62.5248 10.7856C62.5262 10.7533 62.5211 10.7211 62.51 10.6907C62.387 10.3252 62.1787 9.99432 61.9024 9.72531C61.626 9.4563 61.2896 9.25693 60.921 9.14373C60.8579 9.12901 60.7915 9.13991 60.7364 9.17402C60.6813 9.20813 60.642 9.26267 60.627 9.32572C60.6141 9.3887 60.6258 9.45421 60.6596 9.50886C60.6935 9.56351 60.7469 9.60318 60.809 9.61973C61.1007 9.71151 61.366 9.87193 61.5828 10.0875C61.7997 10.3031 61.9616 10.5676 62.055 10.8587C62.0703 10.9007 62.0978 10.9371 62.134 10.9633C62.1702 10.9895 62.2134 11.0043 62.258 11.0057Z" fill="#263238"/>
<path d="M67.137 31.6556L60.984 35.7996C60.984 35.7996 69.86 51.5846 69.111 54.1116C68.096 57.5556 66.682 65.0876 64.757 68.9026C65.009 69.7286 66.29 71.6116 67.004 71.9406C71.904 68.2096 76.86 56.5406 76.671 53.2716C76.223 45.8726 67.137 31.6556 67.137 31.6556Z" fill="#9F5B53"/>
<path d="M65.674 28.1977C70.525 28.8977 76.083 45.6977 76.083 45.6977L65.884 51.4727C65.884 51.4727 61.397 43.4787 59.178 37.5357C56.868 31.3197 60.466 27.4417 65.674 28.1977Z" fill="#FFB347"/>
<path opacity="0.6" d="M65.674 28.1977C70.525 28.8977 76.083 45.6977 76.083 45.6977L65.884 51.4727C65.884 51.4727 61.397 43.4787 59.178 37.5357C56.868 31.3197 60.466 27.4417 65.674 28.1977Z" fill="#FAFAFA"/>
<path d="M73.64 203.548C73.2911 203.576 72.943 203.485 72.653 203.289C72.5623 203.209 72.4921 203.11 72.4482 202.997C72.4044 202.885 72.3882 202.764 72.401 202.645C72.4025 202.574 72.4227 202.505 72.4596 202.445C72.4965 202.385 72.5488 202.335 72.611 202.302C73.171 202.015 74.83 203.002 75.019 203.149C75.0397 203.16 75.0563 203.178 75.0663 203.199C75.0764 203.22 75.0794 203.244 75.075 203.268C75.0714 203.291 75.0608 203.313 75.0446 203.331C75.0283 203.348 75.0072 203.36 74.984 203.366C74.5447 203.479 74.0936 203.54 73.64 203.548ZM72.884 202.491C72.8334 202.478 72.7806 202.478 72.73 202.491C72.695 202.491 72.66 202.54 72.653 202.638C72.642 202.719 72.651 202.801 72.679 202.878C72.7071 202.955 72.7534 203.024 72.814 203.079C73.3876 203.337 74.0375 203.369 74.634 203.17C74.1004 202.832 73.5059 202.601 72.884 202.491Z" fill="#FFB347"/>
<path d="M74.984 203.373H74.921C74.389 203.079 73.367 201.973 73.472 201.385C73.4913 201.295 73.5407 201.215 73.6121 201.158C73.6835 201.1 73.7724 201.069 73.864 201.07C73.9563 201.056 74.0505 201.063 74.1399 201.09C74.2294 201.116 74.312 201.162 74.382 201.224C74.977 201.714 75.082 203.191 75.082 203.254C75.0815 203.275 75.0762 203.297 75.0665 203.316C75.0568 203.335 75.043 203.352 75.026 203.366L74.984 203.373ZM73.948 201.273H73.892C73.731 201.273 73.717 201.364 73.717 201.399C73.647 201.735 74.305 202.582 74.83 202.988C74.7959 202.403 74.5861 201.842 74.228 201.378C74.1421 201.305 74.0322 201.268 73.92 201.273H73.948Z" fill="#FFB347"/>
<path d="M42.784 203.555C42.3452 203.591 41.9068 203.48 41.538 203.24C41.4564 203.165 41.3935 203.072 41.3546 202.969C41.3156 202.866 41.3017 202.754 41.314 202.645C41.3164 202.578 41.3364 202.513 41.372 202.456C41.4077 202.4 41.4577 202.354 41.517 202.323C42.133 201.973 44.198 203.023 44.429 203.142C44.4533 203.151 44.4732 203.169 44.4848 203.193C44.4964 203.216 44.499 203.243 44.492 203.268C44.4894 203.292 44.4792 203.314 44.4628 203.332C44.4464 203.349 44.4247 203.361 44.401 203.366C43.8695 203.481 43.3279 203.545 42.784 203.555ZM41.86 202.491C41.7808 202.487 41.7019 202.501 41.629 202.533C41.6057 202.546 41.5863 202.566 41.5728 202.589C41.5592 202.612 41.5521 202.639 41.552 202.666C41.5456 202.738 41.5554 202.811 41.5809 202.878C41.6063 202.946 41.6467 203.008 41.699 203.058C42.021 203.338 42.861 203.38 43.995 203.198C43.3353 202.844 42.6205 202.605 41.881 202.491H41.86Z" fill="#FFB347"/>
<path d="M44.394 203.373H44.345C43.729 203.1 42.504 201.973 42.595 201.406C42.595 201.273 42.714 201.105 43.05 201.07C43.175 201.05 43.3027 201.059 43.4238 201.095C43.545 201.132 43.6564 201.195 43.75 201.28C44.401 201.812 44.541 203.191 44.548 203.254C44.5481 203.274 44.543 203.295 44.5332 203.313C44.5234 203.332 44.5093 203.347 44.492 203.359C44.4788 203.37 44.4625 203.378 44.4451 203.38C44.4277 203.383 44.41 203.38 44.394 203.373ZM43.148 201.273H43.071C42.854 201.273 42.84 201.385 42.833 201.413C42.777 201.763 43.61 202.631 44.233 203.009C44.1658 202.422 43.9216 201.871 43.533 201.427C43.4249 201.335 43.2897 201.281 43.148 201.273Z" fill="#FFB347"/>
<path d="M64.736 68.9027L59.836 68.5247L62.405 73.9287C62.405 73.9287 66.682 74.1177 67.396 70.8487L64.736 68.9027Z" fill="#9F5B53"/>
<path d="M55.895 70.9887L58.457 75.7627L62.426 73.9217L59.857 68.5247L55.895 70.9887Z" fill="#9F5B53"/>
<path d="M25.046 209.001H18.2L2.66699 41.1826L9.44299 40.5526L25.046 209.001Z" fill="#FFB347"/>
<path opacity="0.3" d="M25.046 209.001H18.2L2.66699 41.1826L9.44299 40.5526L25.046 209.001Z" fill="#FAFAFA"/>
<path d="M38.71 209.001H31.878L16.219 39.9297L22.995 39.2997L38.71 209.001Z" fill="#FFB347"/>
<path opacity="0.3" d="M38.71 209.001H31.878L16.219 39.9297L22.995 39.2997L38.71 209.001Z" fill="#FAFAFA"/>
<path d="M31.878 209.001H25.046L9.44299 40.5527L16.219 39.9297L31.878 209.001Z" fill="#FFB347"/>
<path opacity="0.4" d="M31.878 209.001H25.046L9.44299 40.5527L16.219 39.9297L31.878 209.001Z" fill="#FAFAFA"/>
<path d="M14.791 28.1976L8.69399 28.7646L2.66699 41.1826L22.995 39.2996L14.791 28.1976Z" fill="#FFB347"/>
<path opacity="0.8" d="M14.791 28.1976L8.69399 28.7646L2.66699 41.1826L22.995 39.2996L14.791 28.1976Z" fill="#FAFAFA"/>
<path d="M11.27 23.4376L8.69397 28.7646L14.791 28.1976L11.27 23.4376Z" fill="#FFB347"/>
<path opacity="0.4" d="M11.27 23.4376L8.69397 28.7646L14.791 28.1976L11.27 23.4376Z" fill="#FAFAFA"/>
<path d="M194.936 16.7176L186.984 15.8356C187.013 21.292 186.492 26.7375 185.43 32.0896L182.686 45.8306L190.631 46.7126L193.375 32.9716C194.438 27.6196 194.958 22.174 194.929 16.7176H194.936Z" fill="#FFB347"/>
<path opacity="0.4" d="M194.936 16.7176L186.984 15.8356C187.013 21.292 186.492 26.7375 185.43 32.0896L182.686 45.8306L190.631 46.7126L193.375 32.9716C194.438 27.6196 194.958 22.174 194.929 16.7176H194.936Z" fill="#FAFAFA"/>
<path d="M207.648 33.0977H84.973L69.769 209.008H192.444L207.648 33.0977Z" fill="#FFB347"/>
<path opacity="0.8" d="M207.648 33.0977H84.973L69.769 209.008H192.444L207.648 33.0977Z" fill="#FAFAFA"/>
<path d="M193.193 200.293H70.525L69.769 209.008H192.444L193.193 200.293Z" fill="#FFB347"/>
<path opacity="0.4" d="M193.193 200.293H70.525L69.769 209.008H192.444L193.193 200.293Z" fill="#FAFAFA"/>
<path d="M199.654 33.0977H76.979L61.775 209.008H184.45L199.654 33.0977Z" fill="#FAFAFA"/>
<path d="M185.199 200.293H62.531L61.775 209.008H184.45L185.199 200.293Z" fill="#FFB347"/>
<path opacity="0.6" d="M185.199 200.293H62.531L61.775 209.008H184.45L185.199 200.293Z" fill="#FAFAFA"/>
<path d="M191.254 41.9246H83.867C83.8477 41.9246 83.8286 41.9208 83.8108 41.9134C83.7929 41.906 83.7767 41.8952 83.7631 41.8816C83.7494 41.8679 83.7386 41.8517 83.7312 41.8339C83.7238 41.816 83.72 41.7969 83.72 41.7776C83.7217 41.7392 83.7378 41.7028 83.765 41.6756C83.7922 41.6484 83.8286 41.6323 83.867 41.6306H191.254C191.294 41.6306 191.332 41.6458 191.361 41.6732C191.389 41.7006 191.406 41.738 191.408 41.7776C191.408 41.7975 191.404 41.8172 191.396 41.8355C191.388 41.8538 191.377 41.8704 191.363 41.8841C191.348 41.8979 191.331 41.9085 191.312 41.9155C191.294 41.9225 191.274 41.9256 191.254 41.9246Z" fill="#FFB347"/>
<path d="M190.645 48.9876H83.258C83.219 48.9876 83.1816 48.9721 83.1541 48.9445C83.1265 48.917 83.111 48.8796 83.111 48.8406C83.1127 48.8022 83.1288 48.7658 83.156 48.7386C83.1832 48.7114 83.2196 48.6953 83.258 48.6936H190.645C190.684 48.6936 190.721 48.7091 190.749 48.7367C190.777 48.7642 190.792 48.8016 190.792 48.8406C190.792 48.8796 190.777 48.917 190.749 48.9445C190.721 48.9721 190.684 48.9876 190.645 48.9876Z" fill="#FFB347"/>
<path d="M190.036 56.0506H82.6841C82.6451 56.0506 82.6077 56.0351 82.5801 56.0075C82.5525 55.98 82.537 55.9426 82.537 55.9036C82.537 55.8646 82.5525 55.8272 82.5801 55.7996C82.6077 55.7721 82.6451 55.7566 82.6841 55.7566H190.036C190.075 55.7566 190.112 55.7721 190.14 55.7996C190.168 55.8272 190.183 55.8646 190.183 55.9036C190.183 55.9426 190.168 55.98 190.14 56.0075C190.112 56.0351 190.075 56.0506 190.036 56.0506Z" fill="#FFB347"/>
<path d="M189.427 63.1136H82.04C82.001 63.1136 81.9636 63.0981 81.9361 63.0705C81.9085 63.043 81.893 63.0056 81.893 62.9666C81.893 62.9276 81.9085 62.8902 81.9361 62.8626C81.9636 62.8351 82.001 62.8196 82.04 62.8196H189.427C189.446 62.8196 189.465 62.8234 189.483 62.8308C189.501 62.8382 189.517 62.849 189.531 62.8626C189.545 62.8763 189.555 62.8925 189.563 62.9103C189.57 62.9282 189.574 62.9473 189.574 62.9666C189.574 62.9859 189.57 63.005 189.563 63.0228C189.555 63.0407 189.545 63.0569 189.531 63.0705C189.517 63.0842 189.501 63.095 189.483 63.1024C189.465 63.1098 189.446 63.1136 189.427 63.1136Z" fill="#FFB347"/>
<path d="M188.818 70.1766H81.4311C81.3921 70.1766 81.3547 70.1611 81.3271 70.1335C81.2995 70.1059 81.2841 70.0685 81.2841 70.0296C81.2841 69.9906 81.2995 69.9532 81.3271 69.9256C81.3547 69.8981 81.3921 69.8826 81.4311 69.8826H188.818C188.857 69.8826 188.894 69.8981 188.922 69.9256C188.95 69.9532 188.965 69.9906 188.965 70.0296C188.965 70.0685 188.95 70.1059 188.922 70.1335C188.894 70.1611 188.857 70.1766 188.818 70.1766Z" fill="#FFB347"/>
<path d="M188.202 77.2396H80.822C80.7831 77.2396 80.7457 77.2241 80.7181 77.1965C80.6905 77.1689 80.675 77.1315 80.675 77.0926C80.675 77.0536 80.6905 77.0162 80.7181 76.9886C80.7457 76.961 80.7831 76.9456 80.822 76.9456H188.202C188.241 76.9456 188.278 76.961 188.306 76.9886C188.334 77.0162 188.349 77.0536 188.349 77.0926C188.349 77.1315 188.334 77.1689 188.306 77.1965C188.278 77.2241 188.241 77.2396 188.202 77.2396Z" fill="#FFB347"/>
<path d="M187.593 84.3027H80.206C80.167 84.3027 80.1296 84.2872 80.1021 84.2596C80.0745 84.232 80.059 84.1947 80.059 84.1557C80.059 84.1167 80.0745 84.0793 80.1021 84.0517C80.1296 84.0242 80.167 84.0087 80.206 84.0087H187.593C187.632 84.0087 187.669 84.0242 187.697 84.0517C187.725 84.0793 187.74 84.1167 187.74 84.1557C187.74 84.1947 187.725 84.232 187.697 84.2596C187.669 84.2872 187.632 84.3027 187.593 84.3027Z" fill="#FFB347"/>
<path d="M186.984 91.3726H79.597C79.558 91.3726 79.5206 91.3571 79.4931 91.3296C79.4655 91.302 79.45 91.2646 79.45 91.2256C79.45 91.1866 79.4655 91.1492 79.4931 91.1217C79.5206 91.0941 79.558 91.0786 79.597 91.0786H186.984C187.023 91.0786 187.06 91.0941 187.088 91.1217C187.116 91.1492 187.131 91.1866 187.131 91.2256C187.131 91.2646 187.116 91.302 187.088 91.3296C187.06 91.3571 187.023 91.3726 186.984 91.3726Z" fill="#FFB347"/>
<path d="M186.375 98.4286H78.988C78.949 98.4286 78.9116 98.4132 78.8841 98.3856C78.8565 98.358 78.841 98.3206 78.841 98.2816C78.841 98.2427 78.8565 98.2053 78.8841 98.1777C78.9116 98.1501 78.949 98.1346 78.988 98.1346H186.375C186.414 98.1346 186.451 98.1501 186.479 98.1777C186.507 98.2053 186.522 98.2427 186.522 98.2816C186.522 98.3206 186.507 98.358 186.479 98.3856C186.451 98.4132 186.414 98.4286 186.375 98.4286Z" fill="#FFB347"/>
<path d="M185.766 105.492H78.379C78.34 105.492 78.3026 105.476 78.2751 105.449C78.2475 105.421 78.232 105.384 78.232 105.345C78.232 105.306 78.2475 105.268 78.2751 105.241C78.3026 105.213 78.34 105.198 78.379 105.198H185.766C185.805 105.198 185.842 105.213 185.87 105.241C185.897 105.268 185.913 105.306 185.913 105.345C185.911 105.383 185.895 105.419 185.868 105.447C185.841 105.474 185.804 105.49 185.766 105.492Z" fill="#FFB347"/>
<path d="M185.15 112.555H77.7841C77.7616 112.56 77.7383 112.559 77.7159 112.554C77.6936 112.549 77.6726 112.538 77.6547 112.524C77.6368 112.51 77.6224 112.491 77.6125 112.471C77.6026 112.45 77.5974 112.427 77.5974 112.404C77.5974 112.381 77.6026 112.358 77.6125 112.338C77.6224 112.317 77.6368 112.299 77.6547 112.284C77.6726 112.27 77.6936 112.26 77.7159 112.254C77.7383 112.249 77.7616 112.249 77.7841 112.254H185.164C185.187 112.249 185.21 112.249 185.232 112.254C185.255 112.26 185.275 112.27 185.293 112.284C185.311 112.299 185.326 112.317 185.336 112.338C185.346 112.358 185.351 112.381 185.351 112.404C185.351 112.427 185.346 112.45 185.336 112.471C185.326 112.491 185.311 112.51 185.293 112.524C185.275 112.538 185.255 112.549 185.232 112.554C185.21 112.559 185.187 112.56 185.164 112.555H185.15Z" fill="#FFB347"/>
<path d="M184.541 119.618H77.154C77.1196 119.61 77.0888 119.591 77.0668 119.564C77.0447 119.536 77.0327 119.502 77.0327 119.467C77.0327 119.432 77.0447 119.398 77.0668 119.37C77.0888 119.343 77.1196 119.324 77.154 119.317H184.541C184.561 119.317 184.581 119.321 184.599 119.328C184.617 119.336 184.634 119.348 184.648 119.362C184.661 119.377 184.672 119.394 184.679 119.412C184.686 119.431 184.689 119.451 184.688 119.471C184.688 119.51 184.673 119.547 184.645 119.575C184.617 119.602 184.58 119.618 184.541 119.618Z" fill="#FFB347"/>
<path d="M183.932 126.681H76.545C76.5251 126.681 76.5054 126.677 76.4871 126.669C76.4688 126.661 76.4522 126.65 76.4385 126.635C76.4247 126.621 76.4141 126.604 76.4071 126.585C76.4001 126.566 76.397 126.547 76.398 126.527C76.398 126.488 76.4135 126.45 76.441 126.423C76.4686 126.395 76.506 126.38 76.545 126.38H183.932C183.971 126.38 184.008 126.395 184.036 126.423C184.063 126.45 184.079 126.488 184.079 126.527C184.08 126.547 184.077 126.566 184.07 126.585C184.063 126.604 184.052 126.621 184.038 126.635C184.025 126.65 184.008 126.661 183.99 126.669C183.972 126.677 183.952 126.681 183.932 126.681Z" fill="#FFB347"/>
<path d="M183.323 133.744H75.936C75.9161 133.744 75.8964 133.74 75.8781 133.732C75.8598 133.724 75.8432 133.713 75.8295 133.698C75.8157 133.684 75.8051 133.667 75.7981 133.648C75.7911 133.629 75.788 133.61 75.789 133.59C75.789 133.551 75.8045 133.513 75.832 133.486C75.8596 133.458 75.897 133.443 75.936 133.443H183.323C183.357 133.45 183.388 133.469 183.41 133.496C183.432 133.524 183.444 133.558 183.444 133.593C183.444 133.628 183.432 133.662 183.41 133.69C183.388 133.717 183.357 133.736 183.323 133.744Z" fill="#FFB347"/>
<path d="M182.714 140.807H75.327C75.3071 140.807 75.2874 140.803 75.2691 140.795C75.2508 140.787 75.2343 140.776 75.2205 140.761C75.2068 140.747 75.1961 140.73 75.1891 140.711C75.1822 140.692 75.1791 140.672 75.18 140.653C75.18 140.614 75.1955 140.576 75.2231 140.549C75.2507 140.521 75.2881 140.506 75.327 140.506H182.714C182.748 140.513 182.779 140.532 182.801 140.559C182.823 140.587 182.835 140.621 182.835 140.656C182.835 140.691 182.823 140.725 182.801 140.753C182.779 140.78 182.748 140.799 182.714 140.807Z" fill="#FFB347"/>
<path d="M182.084 147.87H74.718C74.6955 147.875 74.6723 147.874 74.6499 147.869C74.6275 147.864 74.6066 147.854 74.5887 147.839C74.5708 147.825 74.5564 147.806 74.5464 147.786C74.5365 147.765 74.5314 147.742 74.5314 147.719C74.5314 147.696 74.5365 147.673 74.5464 147.653C74.5564 147.632 74.5708 147.614 74.5887 147.599C74.6066 147.585 74.6275 147.575 74.6499 147.569C74.6723 147.564 74.6955 147.564 74.718 147.569H182.084C182.106 147.564 182.13 147.564 182.152 147.569C182.175 147.575 182.195 147.585 182.213 147.599C182.231 147.614 182.246 147.632 182.256 147.653C182.266 147.673 182.271 147.696 182.271 147.719C182.271 147.742 182.266 147.765 182.256 147.786C182.246 147.806 182.231 147.825 182.213 147.839C182.195 147.854 182.175 147.864 182.152 147.869C182.13 147.874 182.106 147.875 182.084 147.87Z" fill="#FFB347"/>
<path d="M181.489 154.926H74.102C74.063 154.926 74.0256 154.91 73.9981 154.883C73.9705 154.855 73.955 154.818 73.955 154.779C73.955 154.74 73.9705 154.702 73.9981 154.675C74.0256 154.647 74.063 154.632 74.102 154.632H181.489C181.528 154.632 181.565 154.647 181.593 154.675C181.621 154.702 181.636 154.74 181.636 154.779C181.636 154.818 181.621 154.855 181.593 154.883C181.565 154.91 181.528 154.926 181.489 154.926Z" fill="#FFB347"/>
<path d="M180.88 161.989H73.493C73.454 161.989 73.4166 161.973 73.3891 161.946C73.3615 161.918 73.346 161.881 73.346 161.842C73.346 161.803 73.3615 161.765 73.3891 161.738C73.4166 161.71 73.454 161.695 73.493 161.695H180.88C180.919 161.695 180.956 161.71 180.984 161.738C181.012 161.765 181.027 161.803 181.027 161.842C181.027 161.881 181.012 161.918 180.984 161.946C180.956 161.973 180.919 161.989 180.88 161.989Z" fill="#FFB347"/>
<path d="M180.271 169.073H72.884C72.845 169.073 72.8076 169.057 72.7801 169.03C72.7525 169.002 72.737 168.965 72.737 168.926C72.737 168.887 72.7525 168.849 72.7801 168.822C72.8076 168.794 72.845 168.779 72.884 168.779H180.271C180.31 168.779 180.347 168.794 180.375 168.822C180.403 168.849 180.418 168.887 180.418 168.926C180.418 168.965 180.403 169.002 180.375 169.03C180.347 169.057 180.31 169.073 180.271 169.073Z" fill="#FFB347"/>
<path d="M179.662 176.115H72.2751C72.2361 176.115 72.1987 176.099 72.1711 176.071C72.1435 176.044 72.1281 176.007 72.1281 175.968C72.1281 175.929 72.1435 175.891 72.1711 175.864C72.1987 175.836 72.2361 175.821 72.2751 175.821H179.662C179.701 175.821 179.738 175.836 179.766 175.864C179.794 175.891 179.809 175.929 179.809 175.968C179.809 176.007 179.794 176.044 179.766 176.071C179.738 176.099 179.701 176.115 179.662 176.115Z" fill="#FFB347"/>
<path d="M179.046 183.178H71.666C71.6271 183.178 71.5897 183.162 71.5621 183.135C71.5345 183.107 71.519 183.07 71.519 183.031C71.519 182.992 71.5345 182.954 71.5621 182.927C71.5897 182.899 71.6271 182.884 71.666 182.884H179.046C179.085 182.884 179.122 182.899 179.15 182.927C179.178 182.954 179.193 182.992 179.193 183.031C179.193 183.07 179.178 183.107 179.15 183.135C179.122 183.162 179.085 183.178 179.046 183.178Z" fill="#FFB347"/>
<path d="M178.437 190.241H71.05C71.011 190.241 70.9736 190.225 70.9461 190.198C70.9185 190.17 70.903 190.133 70.903 190.094C70.903 190.055 70.9185 190.017 70.9461 189.99C70.9736 189.962 71.011 189.947 71.05 189.947H178.437C178.476 189.947 178.513 189.962 178.541 189.99C178.569 190.017 178.584 190.055 178.584 190.094C178.584 190.133 178.569 190.17 178.541 190.198C178.513 190.225 178.476 190.241 178.437 190.241Z" fill="#FFB347"/>
<g opacity="0.5">
<path opacity="0.5" d="M191.254 41.9246H83.867C83.8477 41.9246 83.8286 41.9208 83.8108 41.9134C83.7929 41.906 83.7767 41.8952 83.7631 41.8816C83.7494 41.8679 83.7386 41.8517 83.7312 41.8339C83.7238 41.816 83.72 41.7969 83.72 41.7776C83.7217 41.7392 83.7378 41.7028 83.765 41.6756C83.7922 41.6484 83.8286 41.6323 83.867 41.6306H191.254C191.294 41.6306 191.332 41.6458 191.361 41.6732C191.389 41.7006 191.406 41.738 191.408 41.7776C191.408 41.7975 191.404 41.8172 191.396 41.8355C191.388 41.8538 191.377 41.8704 191.363 41.8841C191.348 41.8979 191.331 41.9085 191.312 41.9155C191.294 41.9225 191.274 41.9256 191.254 41.9246Z" fill="#FAFAFA"/>
<path opacity="0.5" d="M190.645 48.9876H83.258C83.219 48.9876 83.1816 48.9721 83.1541 48.9445C83.1265 48.917 83.111 48.8796 83.111 48.8406C83.1127 48.8022 83.1288 48.7658 83.156 48.7386C83.1832 48.7114 83.2196 48.6953 83.258 48.6936H190.645C190.684 48.6936 190.721 48.7091 190.749 48.7367C190.777 48.7642 190.792 48.8016 190.792 48.8406C190.792 48.8796 190.777 48.917 190.749 48.9445C190.721 48.9721 190.684 48.9876 190.645 48.9876Z" fill="#FAFAFA"/>
<path opacity="0.5" d="M190.036 56.0506H82.684C82.645 56.0506 82.6076 56.0351 82.58 56.0075C82.5525 55.98 82.537 55.9426 82.537 55.9036C82.537 55.8646 82.5525 55.8272 82.58 55.7996C82.6076 55.7721 82.645 55.7566 82.684 55.7566H190.036C190.075 55.7566 190.112 55.7721 190.14 55.7996C190.167 55.8272 190.183 55.8646 190.183 55.9036C190.183 55.9426 190.167 55.98 190.14 56.0075C190.112 56.0351 190.075 56.0506 190.036 56.0506Z" fill="#FAFAFA"/>
<path opacity="0.5" d="M189.427 63.1136H82.04C82.001 63.1136 81.9636 63.0981 81.9361 63.0705C81.9085 63.043 81.893 63.0056 81.893 62.9666C81.893 62.9276 81.9085 62.8902 81.9361 62.8626C81.9636 62.8351 82.001 62.8196 82.04 62.8196H189.427C189.446 62.8196 189.465 62.8234 189.483 62.8308C189.501 62.8382 189.517 62.849 189.531 62.8626C189.545 62.8763 189.555 62.8925 189.563 62.9103C189.57 62.9282 189.574 62.9473 189.574 62.9666C189.574 62.9859 189.57 63.005 189.563 63.0228C189.555 63.0407 189.545 63.0569 189.531 63.0705C189.517 63.0842 189.501 63.095 189.483 63.1024C189.465 63.1098 189.446 63.1136 189.427 63.1136Z" fill="#FAFAFA"/>
<path opacity="0.5" d="M188.818 70.1766H81.431C81.392 70.1766 81.3546 70.1611 81.3271 70.1335C81.2995 70.1059 81.284 70.0685 81.284 70.0296C81.284 69.9906 81.2995 69.9532 81.3271 69.9256C81.3546 69.8981 81.392 69.8826 81.431 69.8826H188.818C188.857 69.8826 188.894 69.8981 188.922 69.9256C188.95 69.9532 188.965 69.9906 188.965 70.0296C188.965 70.0685 188.95 70.1059 188.922 70.1335C188.894 70.1611 188.857 70.1766 188.818 70.1766Z" fill="#FAFAFA"/>
<path opacity="0.5" d="M188.202 77.2397H80.822C80.783 77.2397 80.7456 77.2242 80.718 77.1966C80.6905 77.1691 80.675 77.1317 80.675 77.0927C80.675 77.0537 80.6905 77.0163 80.718 76.9887C80.7456 76.9612 80.783 76.9457 80.822 76.9457H188.202C188.241 76.9457 188.278 76.9612 188.306 76.9887C188.333 77.0163 188.349 77.0537 188.349 77.0927C188.349 77.1317 188.333 77.1691 188.306 77.1966C188.278 77.2242 188.241 77.2397 188.202 77.2397Z" fill="#FAFAFA"/>
<path opacity="0.5" d="M187.593 84.3027H80.206C80.167 84.3027 80.1296 84.2872 80.1021 84.2596C80.0745 84.232 80.059 84.1947 80.059 84.1557C80.059 84.1167 80.0745 84.0793 80.1021 84.0517C80.1296 84.0242 80.167 84.0087 80.206 84.0087H187.593C187.632 84.0087 187.669 84.0242 187.697 84.0517C187.725 84.0793 187.74 84.1167 187.74 84.1557C187.74 84.1947 187.725 84.232 187.697 84.2596C187.669 84.2872 187.632 84.3027 187.593 84.3027Z" fill="#FAFAFA"/>
<path opacity="0.5" d="M186.984 91.3726H79.597C79.558 91.3726 79.5206 91.3571 79.4931 91.3296C79.4655 91.302 79.45 91.2646 79.45 91.2256C79.45 91.1866 79.4655 91.1492 79.4931 91.1217C79.5206 91.0941 79.558 91.0786 79.597 91.0786H186.984C187.023 91.0786 187.06 91.0941 187.088 91.1217C187.116 91.1492 187.131 91.1866 187.131 91.2256C187.131 91.2646 187.116 91.302 187.088 91.3296C187.06 91.3571 187.023 91.3726 186.984 91.3726Z" fill="#FAFAFA"/>
<path opacity="0.5" d="M186.375 98.4286H78.988C78.949 98.4286 78.9116 98.4132 78.8841 98.3856C78.8565 98.358 78.841 98.3206 78.841 98.2816C78.841 98.2427 78.8565 98.2053 78.8841 98.1777C78.9116 98.1501 78.949 98.1346 78.988 98.1346H186.375C186.414 98.1346 186.451 98.1501 186.479 98.1777C186.507 98.2053 186.522 98.2427 186.522 98.2816C186.522 98.3206 186.507 98.358 186.479 98.3856C186.451 98.4132 186.414 98.4286 186.375 98.4286Z" fill="#FAFAFA"/>
<path opacity="0.5" d="M185.766 105.492H78.379C78.34 105.492 78.3026 105.476 78.2751 105.449C78.2475 105.421 78.232 105.384 78.232 105.345C78.232 105.306 78.2475 105.268 78.2751 105.241C78.3026 105.213 78.34 105.198 78.379 105.198H185.766C185.805 105.198 185.842 105.213 185.87 105.241C185.897 105.268 185.913 105.306 185.913 105.345C185.911 105.383 185.895 105.419 185.868 105.447C185.841 105.474 185.804 105.49 185.766 105.492Z" fill="#FAFAFA"/>
<path opacity="0.5" d="M185.15 112.555H77.784C77.7615 112.56 77.7382 112.559 77.7159 112.554C77.6935 112.549 77.6726 112.538 77.6547 112.524C77.6368 112.51 77.6223 112.491 77.6124 112.471C77.6025 112.45 77.5974 112.427 77.5974 112.404C77.5974 112.381 77.6025 112.358 77.6124 112.338C77.6223 112.317 77.6368 112.299 77.6547 112.284C77.6726 112.27 77.6935 112.26 77.7159 112.254C77.7382 112.249 77.7615 112.249 77.784 112.254H185.164C185.186 112.249 185.21 112.249 185.232 112.254C185.254 112.26 185.275 112.27 185.293 112.284C185.311 112.299 185.326 112.317 185.336 112.338C185.345 112.358 185.351 112.381 185.351 112.404C185.351 112.427 185.345 112.45 185.336 112.471C185.326 112.491 185.311 112.51 185.293 112.524C185.275 112.538 185.254 112.549 185.232 112.554C185.21 112.559 185.186 112.56 185.164 112.555H185.15Z" fill="#FAFAFA"/>
<path opacity="0.5" d="M184.541 119.618H77.154C77.1196 119.61 77.0888 119.591 77.0668 119.564C77.0447 119.536 77.0327 119.502 77.0327 119.467C77.0327 119.432 77.0447 119.398 77.0668 119.37C77.0888 119.343 77.1196 119.324 77.154 119.317H184.541C184.561 119.317 184.581 119.321 184.599 119.328C184.617 119.336 184.634 119.348 184.648 119.362C184.661 119.377 184.672 119.394 184.679 119.412C184.686 119.431 184.689 119.451 184.688 119.471C184.688 119.51 184.673 119.547 184.645 119.575C184.617 119.602 184.58 119.618 184.541 119.618Z" fill="#FAFAFA"/>
<path opacity="0.5" d="M183.932 126.681H76.545C76.5251 126.681 76.5054 126.677 76.4871 126.669C76.4688 126.661 76.4522 126.65 76.4385 126.635C76.4247 126.621 76.4141 126.604 76.4071 126.585C76.4001 126.566 76.397 126.547 76.398 126.527C76.398 126.488 76.4135 126.45 76.441 126.423C76.4686 126.395 76.506 126.38 76.545 126.38H183.932C183.971 126.38 184.008 126.395 184.036 126.423C184.063 126.45 184.079 126.488 184.079 126.527C184.08 126.547 184.077 126.566 184.07 126.585C184.063 126.604 184.052 126.621 184.038 126.635C184.025 126.65 184.008 126.661 183.99 126.669C183.972 126.677 183.952 126.681 183.932 126.681Z" fill="#FAFAFA"/>
<path opacity="0.5" d="M183.323 133.744H75.936C75.9161 133.744 75.8964 133.74 75.8781 133.732C75.8598 133.724 75.8432 133.713 75.8295 133.698C75.8157 133.684 75.8051 133.667 75.7981 133.648C75.7911 133.629 75.788 133.61 75.789 133.59C75.789 133.551 75.8045 133.513 75.832 133.486C75.8596 133.458 75.897 133.443 75.936 133.443H183.323C183.357 133.45 183.388 133.469 183.41 133.496C183.432 133.524 183.444 133.558 183.444 133.593C183.444 133.628 183.432 133.662 183.41 133.69C183.388 133.717 183.357 133.736 183.323 133.744Z" fill="#FAFAFA"/>
<path opacity="0.5" d="M182.714 140.807H75.327C75.3071 140.807 75.2874 140.803 75.2691 140.795C75.2508 140.787 75.2342 140.776 75.2205 140.761C75.2067 140.747 75.196 140.73 75.1891 140.711C75.1821 140.692 75.179 140.672 75.18 140.653C75.18 140.614 75.1955 140.576 75.223 140.549C75.2506 140.521 75.288 140.506 75.327 140.506H182.714C182.748 140.513 182.779 140.532 182.801 140.559C182.823 140.587 182.835 140.621 182.835 140.656C182.835 140.691 182.823 140.725 182.801 140.753C182.779 140.78 182.748 140.799 182.714 140.807Z" fill="#FAFAFA"/>
<path opacity="0.5" d="M182.084 147.87H74.718C74.6955 147.875 74.6723 147.874 74.6499 147.869C74.6275 147.864 74.6066 147.854 74.5887 147.839C74.5708 147.825 74.5564 147.806 74.5464 147.786C74.5365 147.765 74.5314 147.742 74.5314 147.719C74.5314 147.696 74.5365 147.673 74.5464 147.653C74.5564 147.632 74.5708 147.614 74.5887 147.599C74.6066 147.585 74.6275 147.575 74.6499 147.569C74.6723 147.564 74.6955 147.564 74.718 147.569H182.084C182.106 147.564 182.13 147.564 182.152 147.569C182.175 147.575 182.195 147.585 182.213 147.599C182.231 147.614 182.246 147.632 182.256 147.653C182.266 147.673 182.271 147.696 182.271 147.719C182.271 147.742 182.266 147.765 182.256 147.786C182.246 147.806 182.231 147.825 182.213 147.839C182.195 147.854 182.175 147.864 182.152 147.869C182.13 147.874 182.106 147.875 182.084 147.87Z" fill="#FAFAFA"/>
<path opacity="0.5" d="M181.489 154.926H74.102C74.063 154.926 74.0256 154.91 73.9981 154.883C73.9705 154.855 73.955 154.818 73.955 154.779C73.955 154.74 73.9705 154.702 73.9981 154.675C74.0256 154.647 74.063 154.632 74.102 154.632H181.489C181.528 154.632 181.565 154.647 181.593 154.675C181.621 154.702 181.636 154.74 181.636 154.779C181.636 154.818 181.621 154.855 181.593 154.883C181.565 154.91 181.528 154.926 181.489 154.926Z" fill="#FAFAFA"/>
<path opacity="0.5" d="M180.88 161.989H73.493C73.454 161.989 73.4166 161.973 73.3891 161.946C73.3615 161.918 73.346 161.881 73.346 161.842C73.346 161.803 73.3615 161.765 73.3891 161.738C73.4166 161.71 73.454 161.695 73.493 161.695H180.88C180.919 161.695 180.956 161.71 180.984 161.738C181.012 161.765 181.027 161.803 181.027 161.842C181.027 161.881 181.012 161.918 180.984 161.946C180.956 161.973 180.919 161.989 180.88 161.989Z" fill="#FAFAFA"/>
<path opacity="0.5" d="M180.271 169.073H72.884C72.845 169.073 72.8076 169.057 72.7801 169.03C72.7525 169.002 72.737 168.965 72.737 168.926C72.737 168.887 72.7525 168.849 72.7801 168.822C72.8076 168.794 72.845 168.779 72.884 168.779H180.271C180.31 168.779 180.347 168.794 180.375 168.822C180.403 168.849 180.418 168.887 180.418 168.926C180.418 168.965 180.403 169.002 180.375 169.03C180.347 169.057 180.31 169.073 180.271 169.073Z" fill="#FAFAFA"/>
<path opacity="0.5" d="M179.662 176.115H72.275C72.236 176.115 72.1986 176.099 72.171 176.072C72.1435 176.044 72.128 176.007 72.128 175.968C72.128 175.929 72.1435 175.891 72.171 175.864C72.1986 175.836 72.236 175.821 72.275 175.821H179.662C179.701 175.821 179.738 175.836 179.766 175.864C179.794 175.891 179.809 175.929 179.809 175.968C179.809 176.007 179.794 176.044 179.766 176.072C179.738 176.099 179.701 176.115 179.662 176.115Z" fill="#FAFAFA"/>
<path opacity="0.5" d="M179.046 183.178H71.666C71.627 183.178 71.5896 183.162 71.562 183.135C71.5345 183.107 71.519 183.07 71.519 183.031C71.519 182.992 71.5345 182.954 71.562 182.927C71.5896 182.899 71.627 182.884 71.666 182.884H179.046C179.085 182.884 179.122 182.899 179.15 182.927C179.177 182.954 179.193 182.992 179.193 183.031C179.193 183.07 179.177 183.107 179.15 183.135C179.122 183.162 179.085 183.178 179.046 183.178Z" fill="#FAFAFA"/>
<path opacity="0.5" d="M178.437 190.241H71.05C71.011 190.241 70.9736 190.225 70.9461 190.198C70.9185 190.17 70.903 190.133 70.903 190.094C70.903 190.055 70.9185 190.017 70.9461 189.99C70.9736 189.962 71.011 189.947 71.05 189.947H178.437C178.476 189.947 178.513 189.962 178.541 189.99C178.569 190.017 178.584 190.055 178.584 190.094C178.584 190.133 178.569 190.17 178.541 190.198C178.513 190.225 178.476 190.241 178.437 190.241Z" fill="#FAFAFA"/>
</g>
<path d="M166.964 196.618C166.944 196.614 166.926 196.604 166.914 196.589C166.901 196.573 166.894 196.554 166.894 196.534L180.649 37.4306C180.649 37.3886 180.684 37.3676 180.726 37.3606C180.746 37.3639 180.764 37.3742 180.777 37.3896C180.789 37.4051 180.796 37.4246 180.796 37.4446L167.034 196.548C167.034 196.566 167.027 196.584 167.014 196.597C167 196.61 166.983 196.618 166.964 196.618Z" fill="#FFB347"/>
<path opacity="0.3" d="M166.964 196.618C166.944 196.614 166.926 196.604 166.914 196.589C166.901 196.573 166.894 196.554 166.894 196.534L180.649 37.4306C180.649 37.3886 180.684 37.3676 180.726 37.3606C180.746 37.3639 180.764 37.3742 180.777 37.3896C180.789 37.4051 180.796 37.4246 180.796 37.4446L167.034 196.548C167.034 196.566 167.027 196.584 167.014 196.597C167 196.61 166.983 196.618 166.964 196.618Z" fill="black"/>
<path d="M178.038 14.6666H170.044C170.681 20.0854 170.765 25.5548 170.296 30.9906L169.092 44.9556H177.086L178.29 30.9906C178.759 25.5548 178.675 20.0854 178.038 14.6666Z" fill="#FFB347"/>
<path opacity="0.3" d="M178.038 14.6666H170.044C170.681 20.0854 170.765 25.5548 170.296 30.9906L169.092 44.9556H177.086L178.29 30.9906C178.759 25.5548 178.675 20.0854 178.038 14.6666Z" fill="black"/>
<path d="M108.143 47.7416H108.087C108.053 47.7324 108.023 47.7124 108.002 47.6846C107.98 47.6568 107.968 47.6227 107.968 47.5876C107.952 47.3988 107.898 47.2152 107.809 47.0479C107.72 46.8807 107.598 46.7333 107.45 46.6146C107.165 46.3969 106.839 46.2379 106.492 46.1466C106.144 46.0553 105.783 46.0335 105.427 46.0826C104.864 46.18 104.31 46.33 103.775 46.5306C103.183 46.757 102.568 46.9166 101.941 47.0066C100.803 47.1168 99.6674 46.7832 98.77 46.0756C98.4443 46.5745 97.98 46.9675 97.4341 47.2063C96.8882 47.445 96.2844 47.5192 95.697 47.4196C95.288 47.3356 94.9009 47.1679 94.56 46.9269C94.219 46.686 93.9317 46.377 93.716 46.0196C93.5704 45.7949 93.3459 45.6329 93.0867 45.5655C92.8276 45.4981 92.5526 45.5303 92.316 45.6556C91.4044 46.116 90.4698 46.5296 89.516 46.8946C89.4928 46.9048 89.4678 46.9101 89.4425 46.9101C89.4172 46.9101 89.3922 46.9048 89.369 46.8946C89.3465 46.8812 89.3272 46.8629 89.3127 46.8411C89.2981 46.8193 89.2887 46.7945 89.285 46.7686C89.2557 46.5362 89.2557 46.301 89.285 46.0686C89.2976 45.9759 89.2863 45.8815 89.2519 45.7945C89.2176 45.7074 89.1615 45.6307 89.089 45.5716C89.0266 45.52 88.9517 45.4857 88.8718 45.4722C88.7919 45.4587 88.7099 45.4664 88.634 45.4946C88.251 45.6183 87.8914 45.8052 87.57 46.0476L87.416 46.1666C86.716 46.7126 86.114 47.1186 85.708 47.0626C85.591 47.0447 85.4855 46.9819 85.414 46.8876C85.2673 46.6569 85.21 46.3805 85.253 46.1106C85.326 45.5232 85.5792 44.9729 85.9779 44.5354C86.3765 44.0979 86.9009 43.7947 87.479 43.6676C87.5235 43.6592 87.5694 43.6684 87.6073 43.6932C87.6451 43.718 87.6719 43.7565 87.682 43.8006C87.6871 43.8236 87.6875 43.8474 87.6831 43.8706C87.6788 43.8937 87.6698 43.9158 87.6567 43.9354C87.6436 43.955 87.6267 43.9718 87.607 43.9847C87.5873 43.9976 87.5652 44.0064 87.542 44.0106C87.0373 44.1215 86.5796 44.3866 86.2323 44.7691C85.8849 45.1516 85.665 45.6326 85.603 46.1456C85.5706 46.3281 85.6028 46.5162 85.694 46.6776C85.7008 46.6881 85.7102 46.6968 85.7211 46.7029C85.7321 46.709 85.7444 46.7123 85.757 46.7126C86.051 46.7546 86.772 46.2156 87.206 45.8866L87.36 45.7676C87.7127 45.5044 88.1049 45.2988 88.522 45.1586C88.6537 45.1126 88.795 45.1013 88.9323 45.1259C89.0697 45.1504 89.1983 45.2099 89.306 45.2986C89.4257 45.3929 89.5189 45.5166 89.5766 45.6577C89.6343 45.7988 89.6544 45.9524 89.635 46.1036C89.6245 46.2294 89.6245 46.3558 89.635 46.4816C90.4961 46.1443 91.3395 45.7635 92.162 45.3406C92.4785 45.1677 92.8495 45.1236 93.1976 45.2175C93.5458 45.3114 93.8443 45.536 94.031 45.8446C94.2611 46.2511 94.5969 46.5878 95.0028 46.8191C95.4087 47.0503 95.8696 47.1675 96.3366 47.1582C96.8037 47.1488 97.2595 47.0134 97.6559 46.7661C98.0522 46.5188 98.3743 46.169 98.588 45.7536C98.599 45.7299 98.6155 45.7092 98.6363 45.6934C98.657 45.6775 98.6813 45.667 98.707 45.6626C98.7331 45.6585 98.7597 45.6601 98.7851 45.6674C98.8105 45.6746 98.834 45.6873 98.854 45.7046C99.2708 46.069 99.758 46.344 100.285 46.5126C100.813 46.6812 101.369 46.7397 101.92 46.6846C102.52 46.5958 103.109 46.4433 103.677 46.2296C104.233 46.0203 104.807 45.8633 105.392 45.7606C106.208 45.6539 107.032 45.8727 107.688 46.3696C107.96 46.5851 108.16 46.878 108.262 47.2096C109.375 45.9496 110.705 44.6966 112.371 44.7666C112.478 44.761 112.585 44.778 112.685 44.8166C112.785 44.8552 112.876 44.9145 112.952 44.9906C113.014 45.0843 113.056 45.1899 113.076 45.3008C113.095 45.4117 113.091 45.5253 113.064 45.6346L112.868 47.1116C113.726 46.6301 114.481 45.9829 115.087 45.2076C115.362 44.835 115.696 44.5089 116.074 44.2416C116.249 44.0947 116.468 44.0108 116.697 44.0031C116.925 43.9955 117.15 44.0647 117.334 44.1996C117.574 44.4211 117.738 44.7125 117.803 45.0326C117.803 45.1236 117.859 45.2146 117.894 45.2986C117.968 45.4992 118.116 45.6643 118.307 45.7606C118.342 45.7778 118.38 45.7868 118.419 45.7868C118.458 45.7868 118.496 45.7778 118.531 45.7606C118.573 45.7414 118.621 45.7395 118.664 45.7552C118.707 45.7709 118.742 45.803 118.762 45.8446C118.781 45.8874 118.784 45.9361 118.768 45.9805C118.752 46.0249 118.72 46.0615 118.678 46.0826C118.599 46.1173 118.513 46.1352 118.426 46.1352C118.339 46.1352 118.253 46.1173 118.174 46.0826C117.896 45.9496 117.68 45.7136 117.572 45.4246C117.53 45.3336 117.502 45.2356 117.467 45.1376C117.425 44.8737 117.303 44.6292 117.117 44.4376C116.993 44.3533 116.845 44.3112 116.695 44.3175C116.545 44.3238 116.401 44.3782 116.284 44.4726C115.937 44.7182 115.632 45.0184 115.381 45.3616C114.675 46.2675 113.776 47.0042 112.749 47.5176C112.722 47.5329 112.692 47.541 112.662 47.541C112.631 47.541 112.601 47.5329 112.574 47.5176C112.547 47.4995 112.525 47.4742 112.512 47.4446C112.498 47.4149 112.493 47.382 112.497 47.3496L112.735 45.5366C112.735 45.3966 112.77 45.2426 112.7 45.1656C112.63 45.0886 112.546 45.0746 112.385 45.0676H112.28C110.684 45.0676 109.396 46.4116 108.311 47.6786C108.29 47.7022 108.264 47.7203 108.235 47.7313C108.206 47.7423 108.174 47.7458 108.143 47.7416Z" fill="#263238"/>
<path d="M148.036 47.7206C147.698 47.6805 147.375 47.5588 147.095 47.3662C146.814 47.1735 146.585 46.9156 146.426 46.6146C146.28 46.3612 146.149 46.0994 146.034 45.8306C145.901 45.5146 145.742 45.2102 145.558 44.9206C144.777 45.6012 143.865 46.1136 142.877 46.4256C142.852 46.441 142.823 46.4492 142.793 46.4492C142.763 46.4492 142.734 46.441 142.709 46.4256C142.685 46.4056 142.667 46.3792 142.657 46.3496C142.647 46.3199 142.646 46.288 142.653 46.2576C142.709 45.9901 142.744 45.7186 142.758 45.4456C142.77 45.2194 142.725 44.9938 142.627 44.7895C142.53 44.5853 142.382 44.4089 142.198 44.2766C142.02 44.145 141.812 44.0611 141.592 44.0329C141.373 44.0047 141.15 44.0332 140.945 44.1156L138.929 44.8926C138.607 45.0116 137.634 45.3896 137.109 44.7946C137.047 44.7174 136.991 44.6355 136.941 44.5496C136.887 44.4452 136.808 44.3562 136.71 44.2906C136.549 44.2136 136.332 44.3256 136.136 44.4516C134.855 45.2426 133.539 46.0056 132.23 46.7266C131.774 47.0283 131.249 47.2112 130.704 47.2586C130.447 47.2564 130.193 47.1968 129.962 47.0842C129.731 46.9715 129.527 46.8087 129.367 46.6076C129.115 46.3253 128.96 45.9695 128.926 45.5926C128.173 46.3121 127.198 46.754 126.161 46.8456C125.879 46.8401 125.607 46.7444 125.384 46.5726C125.179 46.3995 125.036 46.1654 124.974 45.9046C124.912 45.6438 124.936 45.37 125.041 45.1236C125.241 44.6846 125.535 44.2951 125.902 43.9826C125.917 43.9625 125.936 43.9459 125.958 43.9339C125.98 43.9219 126.005 43.9148 126.03 43.913C126.055 43.9112 126.08 43.9149 126.103 43.9236C126.127 43.9324 126.148 43.9461 126.166 43.9638C126.184 43.9816 126.197 44.0029 126.206 44.0264C126.215 44.0499 126.218 44.075 126.217 44.1C126.215 44.125 126.208 44.1493 126.196 44.1713C126.184 44.1934 126.167 44.2125 126.147 44.2276C125.819 44.5097 125.554 44.858 125.37 45.2496C125.295 45.4235 125.275 45.6165 125.314 45.8021C125.353 45.9876 125.448 46.1565 125.587 46.2856C125.764 46.3998 125.972 46.4539 126.182 46.4396C127.204 46.4396 128.107 45.7396 129.024 45.0396C129.053 45.0209 129.087 45.0109 129.122 45.0109C129.157 45.0109 129.191 45.0209 129.22 45.0396C129.252 45.0569 129.277 45.0839 129.292 45.1167C129.307 45.1495 129.311 45.1862 129.304 45.2216C129.276 45.4247 129.292 45.6316 129.353 45.8275C129.413 46.0235 129.516 46.2037 129.654 46.3556C129.781 46.5139 129.94 46.6428 130.121 46.7334C130.303 46.8241 130.501 46.8743 130.704 46.8806C131.203 46.8364 131.684 46.6706 132.104 46.3976C133.406 45.6976 134.715 44.9136 135.989 44.1226C136.115 44.0189 136.265 43.9485 136.425 43.9179C136.585 43.8873 136.751 43.8975 136.906 43.9476C137.067 44.0374 137.196 44.1741 137.277 44.3396C137.316 44.4064 137.36 44.4697 137.41 44.5286C137.662 44.8156 138.11 44.8156 138.845 44.5286L140.861 43.7516C141.122 43.6514 141.405 43.6182 141.682 43.6549C141.96 43.6915 142.224 43.797 142.45 43.9616C142.68 44.1285 142.865 44.3506 142.987 44.6074C143.11 44.8642 143.166 45.1476 143.15 45.4316C143.139 45.6216 143.118 45.8109 143.087 45.9986C143.982 45.6743 144.805 45.1772 145.509 44.5356C145.546 44.5032 145.593 44.4858 145.642 44.4866C145.666 44.4887 145.689 44.4961 145.709 44.5082C145.73 44.5203 145.748 44.5368 145.761 44.5566C146.019 44.9033 146.231 45.2821 146.391 45.6836C146.51 45.9426 146.629 46.2016 146.769 46.4396C146.903 46.7259 147.121 46.9652 147.393 47.1262C147.665 47.2873 147.979 47.3627 148.295 47.3426C148.757 47.2376 149.058 46.8176 149.38 46.3626C149.656 45.8398 150.118 45.44 150.675 45.2426C151.252 45.186 151.829 45.3484 152.292 45.6976C152.474 45.7956 152.656 45.9006 152.838 45.9846C153.902 46.4536 155.064 46.1736 156.289 45.8726C157.23 45.5811 158.218 45.4672 159.201 45.5366C159.224 45.5382 159.247 45.5447 159.268 45.5557C159.289 45.5667 159.307 45.5819 159.322 45.6004C159.336 45.6189 159.347 45.6402 159.352 45.6629C159.358 45.6857 159.359 45.7094 159.355 45.7326C159.348 45.7779 159.324 45.8186 159.287 45.8461C159.25 45.8736 159.204 45.8856 159.159 45.8796C158.213 45.8206 157.264 45.9345 156.359 46.2156C155.127 46.5166 153.86 46.8246 152.684 46.2996C152.487 46.2104 152.295 46.1099 152.11 45.9986C151.71 45.6933 151.212 45.5462 150.71 45.5856C150.241 45.6906 149.94 46.1176 149.618 46.5656C149.345 47.0879 148.885 47.4879 148.33 47.6856C148.234 47.7076 148.135 47.7193 148.036 47.7206Z" fill="#263238"/>
<path d="M89.579 54.6436C89.5469 54.6523 89.5131 54.6523 89.481 54.6436C89.4564 54.6248 89.4365 54.6004 89.4231 54.5724C89.4097 54.5444 89.4032 54.5137 89.404 54.4827C89.4398 54.1167 89.5222 53.7568 89.649 53.4117C89.1176 53.8008 88.5095 54.0726 87.865 54.209C87.2206 54.3454 86.5546 54.3432 85.911 54.2026C85.6548 54.1672 85.413 54.0632 85.211 53.9017C85.0093 53.6738 84.8979 53.38 84.8979 53.0756C84.8979 52.7713 85.0093 52.4775 85.211 52.2497C85.5895 51.8377 86.0738 51.5375 86.611 51.3816C86.6546 51.3649 86.7031 51.3662 86.7458 51.3853C86.7885 51.4043 86.8218 51.4395 86.8385 51.4832C86.8552 51.5268 86.8539 51.5753 86.8349 51.6179C86.8158 51.6606 86.7806 51.6939 86.737 51.7106C86.2647 51.8494 85.8374 52.1101 85.498 52.4666C85.3589 52.631 85.2825 52.8393 85.2825 53.0546C85.2825 53.27 85.3589 53.4783 85.498 53.6427C85.6537 53.7549 85.8335 53.8292 86.023 53.8597C86.7655 54.0151 87.5357 53.9742 88.2575 53.7409C88.9794 53.5077 89.6279 53.0902 90.139 52.5296C90.1714 52.4996 90.2139 52.483 90.258 52.483C90.3022 52.483 90.3447 52.4996 90.377 52.5296C90.4133 52.5563 90.4379 52.5959 90.4457 52.6402C90.4535 52.6846 90.444 52.7302 90.419 52.7677C90.127 53.2 89.929 53.6889 89.838 54.2026L94.402 51.7947C94.439 51.7745 94.482 51.7684 94.5232 51.7774C94.5643 51.7864 94.6008 51.8099 94.626 51.8436C94.651 51.8756 94.6646 51.9151 94.6646 51.9557C94.6646 51.9962 94.651 52.0357 94.626 52.0677C94.5965 52.1017 94.577 52.1433 94.5696 52.1877C94.5622 52.2322 94.5672 52.2779 94.584 52.3197C94.6113 52.398 94.6576 52.4684 94.7187 52.5245C94.7797 52.5807 94.8537 52.6209 94.934 52.6416C95.2815 52.6463 95.6184 52.5216 95.879 52.2916L95.928 52.2497C96.234 51.9825 96.6109 51.8099 97.013 51.7526C97.2682 51.7537 97.5205 51.8061 97.755 51.9066C100.048 52.6812 102.48 52.9557 104.888 52.7117C105.259 52.6697 105.637 52.6206 106.008 52.5646C107.442 52.2512 108.929 52.2824 110.348 52.6557C110.37 52.6626 110.391 52.6741 110.408 52.6894C110.426 52.7048 110.44 52.7235 110.45 52.7446C110.46 52.7656 110.465 52.7885 110.466 52.8118C110.466 52.835 110.462 52.8581 110.453 52.8796C110.447 52.9016 110.436 52.922 110.421 52.9394C110.407 52.9569 110.389 52.9711 110.368 52.981C110.348 52.9909 110.325 52.9964 110.302 52.997C110.28 52.9976 110.257 52.9934 110.236 52.9847C108.86 52.6356 107.422 52.6117 106.036 52.9146C105.658 52.9636 105.28 53.0196 104.902 53.0546C102.44 53.2865 99.9573 52.9857 97.622 52.1727C97.3706 52.0422 97.0826 52.0003 96.8045 52.0537C96.5264 52.107 96.2743 52.2525 96.089 52.4666L96.033 52.5017C95.8692 52.6482 95.6776 52.7603 95.4695 52.8313C95.2615 52.9022 95.0413 52.9306 94.822 52.9146C94.6795 52.8829 94.5478 52.8145 94.4398 52.7163C94.3317 52.6181 94.2512 52.4935 94.206 52.3546C94.1879 52.3123 94.1761 52.2675 94.171 52.2217L89.684 54.6226C89.6518 54.6396 89.6153 54.6469 89.579 54.6436Z" fill="#263238"/>
<path d="M117.845 54.2096C117.811 54.2203 117.774 54.2203 117.74 54.2096C117.719 54.1929 117.701 54.1717 117.689 54.1475C117.677 54.1232 117.671 54.0966 117.67 54.0696V53.0266C117.67 52.9801 117.688 52.9356 117.721 52.9028C117.754 52.87 117.799 52.8516 117.845 52.8516C117.89 52.8515 117.934 52.869 117.966 52.9003C117.999 52.9316 118.018 52.9744 118.02 53.0196V53.8316C119.449 53.3954 120.742 52.5972 121.772 51.5146C121.786 51.4966 121.804 51.4822 121.825 51.4725C121.846 51.4628 121.868 51.458 121.891 51.4586C121.937 51.4631 121.98 51.4801 122.017 51.5076C122.195 51.7167 122.302 51.9762 122.325 52.2496C122.374 52.5016 122.416 52.7186 122.577 52.8096C122.716 52.854 122.865 52.854 123.004 52.8096C124.001 52.6829 124.973 52.4068 125.888 51.9906C126.707 51.6196 127.82 51.1156 128.597 51.7596L128.737 51.8926C128.804 51.9677 128.885 52.0295 128.975 52.0746C129.083 52.113 129.197 52.1319 129.311 52.1306C129.383 52.1236 129.456 52.1236 129.528 52.1306C129.774 52.177 130.011 52.2646 130.228 52.3896C130.343 52.4515 130.462 52.5053 130.585 52.5506C130.872 52.6626 131.243 52.6276 131.355 52.4036C131.364 52.3823 131.377 52.3632 131.394 52.3473C131.411 52.3315 131.431 52.3192 131.452 52.3113C131.474 52.3034 131.497 52.3001 131.52 52.3015C131.543 52.3029 131.565 52.3091 131.586 52.3196C131.607 52.3293 131.627 52.3433 131.643 52.3607C131.659 52.378 131.671 52.3984 131.679 52.4207C131.687 52.4429 131.69 52.4665 131.688 52.49C131.687 52.5135 131.681 52.5365 131.67 52.5576C131.542 52.747 131.349 52.8838 131.128 52.943C130.907 53.0021 130.672 52.9796 130.466 52.8796C130.33 52.8284 130.197 52.77 130.067 52.7046C129.883 52.5946 129.682 52.5165 129.472 52.4735H129.283C129.123 52.4751 128.964 52.4466 128.814 52.3896C128.687 52.3246 128.573 52.2368 128.478 52.1306L128.359 52.0186C127.75 51.5216 126.791 51.9556 126.021 52.3056C125.074 52.7339 124.069 53.0193 123.039 53.1526C122.822 53.1953 122.598 53.1709 122.395 53.0826C122.266 52.9906 122.161 52.87 122.087 52.7303C122.013 52.5906 121.972 52.4356 121.968 52.2776C121.946 52.1391 121.911 52.0031 121.863 51.8716C120.76 52.9769 119.39 53.7796 117.887 54.2026L117.845 54.2096Z" fill="#263238"/>
<path d="M140.693 53.7056C140.633 53.7123 140.571 53.7123 140.511 53.7056C140.401 53.6799 140.298 53.6302 140.21 53.56C140.122 53.4898 140.05 53.4009 140 53.2996C139.96 53.2241 139.939 53.14 139.939 53.0546C139.939 52.9692 139.96 52.8851 140 52.8096C140.01 52.7881 140.024 52.7687 140.041 52.753C140.059 52.7372 140.079 52.7253 140.102 52.718C140.124 52.7107 140.148 52.7083 140.171 52.7108C140.195 52.7133 140.218 52.7208 140.238 52.7326C140.258 52.7429 140.276 52.7571 140.29 52.7744C140.305 52.7917 140.315 52.8117 140.322 52.8333C140.328 52.8548 140.331 52.8775 140.328 52.8999C140.326 52.9223 140.319 52.9439 140.308 52.9636C140.294 52.9931 140.286 53.0254 140.286 53.0581C140.286 53.0908 140.294 53.1231 140.308 53.1526C140.335 53.2042 140.373 53.2495 140.419 53.2856C140.465 53.3218 140.518 53.348 140.574 53.3626C140.822 53.3719 141.067 53.3034 141.274 53.1666C142.142 52.7019 142.919 52.0855 143.57 51.3466C143.596 51.3198 143.629 51.3014 143.665 51.2939C143.701 51.2864 143.739 51.2901 143.773 51.3046C143.908 51.3938 144.019 51.5155 144.095 51.6587C144.17 51.8018 144.209 51.9617 144.207 52.1236C144.225 52.2847 144.265 52.4425 144.326 52.5926C144.397 52.7245 144.518 52.8226 144.662 52.8656C145.15 52.9239 145.643 52.8154 146.062 52.5576L148.582 51.1926C148.803 51.0455 149.067 50.9788 149.331 51.0036C149.541 51.0725 149.726 51.2015 149.863 51.3746L149.975 51.4866C150.794 52.2706 152.138 51.8226 153.321 51.4306L153.545 51.3606C155.748 50.6536 158.118 50.6536 160.321 51.3606C160.344 51.3662 160.365 51.3764 160.383 51.3905C160.402 51.4047 160.417 51.4226 160.428 51.443C160.439 51.4634 160.446 51.4859 160.448 51.5091C160.45 51.5322 160.447 51.5556 160.44 51.5776C160.424 51.6214 160.392 51.6574 160.35 51.6783C160.309 51.6991 160.261 51.7032 160.216 51.6896C158.083 51.0069 155.79 51.0069 153.657 51.6896L153.433 51.7666C152.215 52.1656 150.71 52.6696 149.73 51.7666L149.611 51.6406C149.517 51.5224 149.394 51.4307 149.254 51.3746C149.074 51.3715 148.898 51.4254 148.75 51.5286L146.23 52.8936C145.723 53.1951 145.127 53.3136 144.543 53.2296C144.426 53.1958 144.318 53.1387 144.224 53.0617C144.13 52.9847 144.053 52.8894 143.997 52.7816C143.915 52.5999 143.863 52.406 143.843 52.2076C143.83 52.041 143.782 51.8788 143.703 51.7316C143.046 52.4478 142.272 53.0467 141.414 53.5026C141.193 53.626 140.946 53.6956 140.693 53.7056Z" fill="#263238"/>
<path d="M103.453 62.4277C103.428 62.4342 103.401 62.4342 103.376 62.4277C103.343 62.4097 103.315 62.382 103.298 62.3483C103.28 62.3146 103.273 62.2764 103.278 62.2387C103.428 61.2293 103.428 60.2031 103.278 59.1937C102.837 59.6676 102.3 60.0422 101.703 60.2927C101.328 60.4492 100.913 60.4826 100.518 60.3883C100.123 60.2939 99.7686 60.0766 99.505 59.7677C99.4613 59.7097 99.4216 59.6489 99.386 59.5857C99.19 59.2917 99.043 59.0817 98.868 59.1377C98.7863 59.1775 98.7164 59.2378 98.665 59.3127L96.614 61.6717C96.5837 61.6974 96.5452 61.7114 96.5055 61.7114C96.4658 61.7114 96.4273 61.6974 96.397 61.6717C96.3628 61.6516 96.3361 61.6209 96.3209 61.5843C96.3057 61.5476 96.303 61.5071 96.313 61.4687L96.705 60.1597C95.2727 60.1935 93.8401 60.1116 92.421 59.9147C92.3889 59.9098 92.3588 59.8961 92.3341 59.875C92.3094 59.854 92.291 59.8266 92.281 59.7957L92.071 59.1937C91.3883 59.8459 90.5677 60.3363 89.67 60.6287C89.1909 60.7743 88.6797 60.7763 88.1995 60.6344C87.7192 60.4926 87.2911 60.2132 86.968 59.8307C86.6841 60.0764 86.3424 60.2457 85.9751 60.3229C85.6077 60.4 85.2267 60.3824 84.868 60.2717C84.83 60.2579 84.7976 60.2318 84.7761 60.1976C84.7545 60.1634 84.745 60.1229 84.749 60.0827C84.7981 59.7583 84.9595 59.4614 85.2052 59.2439C85.4508 59.0264 85.765 58.9021 86.093 58.8927C86.1165 58.8905 86.1402 58.8936 86.1624 58.9016C86.1846 58.9097 86.2048 58.9225 86.2215 58.9392C86.2382 58.9559 86.251 58.976 86.2591 58.9983C86.2671 59.0205 86.2701 59.0442 86.268 59.0677C86.268 59.1141 86.2496 59.1586 86.2167 59.1914C86.1839 59.2243 86.1394 59.2427 86.093 59.2427C85.8765 59.2564 85.669 59.3343 85.4969 59.4665C85.3249 59.5986 85.1961 59.779 85.127 59.9847C85.442 60.0551 85.77 60.0417 86.0783 59.9459C86.3865 59.8501 86.6643 59.6752 86.884 59.4387C86.9021 59.4181 86.9249 59.4022 86.9505 59.3924C86.9762 59.3827 87.0038 59.3793 87.031 59.3827C87.0587 59.3866 87.0851 59.3969 87.1081 59.4127C87.1312 59.4284 87.1503 59.4493 87.164 59.4737C87.4302 59.8496 87.8087 60.1314 88.2452 60.2786C88.6816 60.4258 89.1535 60.4307 89.593 60.2927C90.5154 59.9689 91.3562 59.4482 92.057 58.7667C92.0817 58.7532 92.1094 58.7461 92.1375 58.7461C92.1656 58.7461 92.1933 58.7532 92.218 58.7667C92.2454 58.7743 92.2706 58.7884 92.2914 58.808C92.3121 58.8275 92.3278 58.8517 92.337 58.8787L92.589 59.6207C94.0344 59.8108 95.4927 59.8857 96.95 59.8447C96.9767 59.8433 97.0033 59.8483 97.0276 59.8593C97.052 59.8702 97.0733 59.8868 97.09 59.9077C97.1035 59.9324 97.1105 59.9601 97.1105 59.9882C97.1105 60.0163 97.1035 60.044 97.09 60.0687L96.866 60.8317L98.385 59.0817C98.4802 58.9585 98.6056 58.8621 98.749 58.8017C99.183 58.6617 99.449 59.0887 99.666 59.3967C99.6992 59.4553 99.7367 59.5115 99.778 59.5647C99.9969 59.8111 100.288 59.9822 100.609 60.0539C100.931 60.1255 101.267 60.0939 101.57 59.9637C102.216 59.6684 102.791 59.2389 103.257 58.7037C103.281 58.6832 103.309 58.6687 103.339 58.6614C103.37 58.6541 103.402 58.6542 103.432 58.6617C103.463 58.6717 103.49 58.6901 103.511 58.7148C103.532 58.7395 103.546 58.7696 103.551 58.8017C103.725 59.7717 103.762 60.7612 103.663 61.7417L105.189 60.0617C105.528 59.6223 105.981 59.2835 106.498 59.0817C107.147 58.9639 107.817 59.0571 108.409 59.3477C108.944 59.6217 109.557 59.7033 110.145 59.5787C110.189 59.5629 110.237 59.5651 110.279 59.5848C110.321 59.6045 110.353 59.6401 110.369 59.6837C110.383 59.7274 110.38 59.7747 110.36 59.8163C110.341 59.8578 110.306 59.8905 110.264 59.9077C109.599 60.0658 108.9 59.984 108.29 59.6767C108.064 59.5254 107.81 59.4214 107.543 59.3708C107.276 59.3202 107.002 59.3241 106.736 59.3823C106.471 59.4405 106.22 59.5517 105.998 59.7094C105.777 59.8671 105.59 60.0678 105.448 60.2997L103.551 62.3997C103.522 62.4178 103.488 62.4275 103.453 62.4277Z" fill="#263238"/>
<path d="M123.368 60.7616H123.179C122.696 60.6426 122.542 60.1666 122.409 59.7466C122.347 59.4923 122.233 59.2539 122.073 59.0466C120.931 59.9501 119.518 60.4432 118.062 60.4466C118.016 60.4449 117.973 60.4259 117.94 60.3934C117.908 60.361 117.889 60.3175 117.887 60.2716C117.887 60.2252 117.905 60.1807 117.938 60.1479C117.971 60.1151 118.016 60.0966 118.062 60.0966C119.478 60.0944 120.849 59.5995 121.94 58.6966C121.97 58.6739 122.007 58.6616 122.045 58.6616C122.083 58.6616 122.12 58.6739 122.15 58.6966C122.446 58.955 122.648 59.3048 122.724 59.6906C122.864 60.1316 122.969 60.3906 123.242 60.4676C123.406 60.493 123.575 60.4686 123.725 60.3976C124.376 60.1793 124.989 59.8579 125.538 59.4456C125.691 59.3133 125.87 59.2133 126.063 59.1516C126.398 59.0977 126.741 59.1673 127.029 59.3476L127.197 59.4246C128.198 59.8656 129.297 59.6276 130.452 59.3826C131.471 59.0729 132.549 59.0153 133.595 59.2146C133.64 59.2277 133.678 59.2575 133.701 59.2979C133.725 59.3383 133.732 59.3862 133.721 59.4316C133.715 59.4537 133.704 59.4743 133.689 59.4922C133.675 59.5101 133.657 59.525 133.637 59.5361C133.617 59.5471 133.595 59.5541 133.572 59.5566C133.549 59.5591 133.526 59.557 133.504 59.5506C132.51 59.3726 131.488 59.4325 130.522 59.7256C129.36 59.9706 128.156 60.2296 127.057 59.7256L126.882 59.6486C126.675 59.5136 126.429 59.4498 126.182 59.4666C126.043 59.513 125.914 59.5868 125.804 59.6836C125.217 60.1237 124.565 60.4708 123.872 60.7126C123.707 60.7534 123.538 60.7699 123.368 60.7616Z" fill="#263238"/>
<path d="M83.699 75.6716C83.4279 75.6718 83.1593 75.6195 82.9081 75.5176C82.6668 75.4281 82.4623 75.2606 82.3271 75.0416C81.9421 74.3416 82.6421 73.6416 83.3561 73.2076C83.3763 73.1965 83.3985 73.1896 83.4214 73.1871C83.4443 73.1846 83.4675 73.1867 83.4896 73.1932C83.5117 73.1997 83.5323 73.2105 83.5502 73.225C83.5682 73.2395 83.5831 73.2574 83.5941 73.2776C83.617 73.3176 83.6233 73.365 83.6115 73.4096C83.5997 73.4541 83.5708 73.4923 83.5311 73.5156C83.0621 73.7816 82.355 74.3626 82.635 74.8736C82.7334 75.0191 82.8757 75.1295 83.041 75.1886C83.783 75.5036 84.735 75.2446 85.841 74.4326C86.6261 73.8666 87.3572 73.2292 88.0251 72.5286C88.0602 72.4931 88.1081 72.473 88.1581 72.4726C88.1824 72.4734 88.2062 72.4794 88.228 72.4903C88.2497 72.5012 88.2689 72.5166 88.284 72.5356C88.4708 72.8232 88.5385 73.1721 88.4731 73.5086C88.4252 73.7495 88.4702 73.9996 88.599 74.2086C88.7065 74.2873 88.8319 74.3381 88.9638 74.3564C89.0958 74.3747 89.2302 74.36 89.355 74.3136C90.4086 74.0433 91.4094 73.5985 92.316 72.9976C92.708 72.7596 93.1141 72.5216 93.5271 72.2976C93.6473 72.2226 93.7845 72.1793 93.926 72.1716C94.374 72.1716 94.507 72.6056 94.626 72.9486C94.6688 73.1698 94.7703 73.3753 94.92 73.5436C95.116 73.7046 95.375 73.6136 95.774 73.4596C96.0079 73.3485 96.2587 73.2776 96.516 73.2496C96.9079 73.261 97.2877 73.3876 97.6081 73.6136L97.832 73.7396C98.161 73.9076 98.6301 74.0196 98.8751 73.7396C98.9078 73.7076 98.9517 73.6896 98.9975 73.6896C99.0433 73.6896 99.0873 73.7076 99.12 73.7396C99.1526 73.7735 99.1707 73.8187 99.1707 73.8656C99.1707 73.9126 99.1526 73.9577 99.12 73.9916C98.9117 74.1494 98.659 74.2377 98.3977 74.244C98.1364 74.2503 97.8797 74.1742 97.664 74.0266L97.426 73.8936C97.1645 73.7036 96.853 73.5941 96.53 73.5786C96.3121 73.6076 96.0998 73.6689 95.9001 73.7606C95.5081 73.9146 95.067 74.0966 94.689 73.7606C94.4818 73.5488 94.3408 73.2813 94.2831 72.9906C94.1781 72.6266 94.108 72.4726 93.94 72.4656C93.8526 72.4772 93.7689 72.5083 93.695 72.5566C93.296 72.7596 92.897 72.9976 92.505 73.2566C91.5649 73.8815 90.526 74.343 89.432 74.6216C89.2488 74.6805 89.0535 74.6915 88.8648 74.6535C88.6761 74.6155 88.5002 74.5298 88.3541 74.4046C88.2509 74.2644 88.1784 74.1041 88.141 73.9341C88.1036 73.7641 88.1023 73.5882 88.137 73.4176C88.1657 73.2391 88.1657 73.0572 88.137 72.8786C87.4872 73.526 86.7848 74.1183 86.037 74.6496C85.3826 75.2245 84.5655 75.5817 83.699 75.6716Z" fill="#263238"/>
<path d="M106.876 75.7066C106.61 75.7138 106.345 75.6561 106.106 75.5386C105.885 75.4182 105.704 75.2349 105.587 75.0119C105.47 74.7888 105.422 74.5361 105.448 74.2856C105.456 74.1132 105.517 73.9476 105.624 73.812C105.731 73.6764 105.877 73.5777 106.043 73.5296C106.065 73.5232 106.087 73.5213 106.11 73.5239C106.132 73.5264 106.154 73.5335 106.173 73.5446C106.193 73.5557 106.21 73.5706 106.224 73.5885C106.237 73.6063 106.247 73.6268 106.253 73.6486C106.259 73.6706 106.261 73.6938 106.259 73.7166C106.256 73.7394 106.25 73.7616 106.238 73.7817C106.227 73.8019 106.213 73.8197 106.195 73.834C106.177 73.8484 106.156 73.8591 106.134 73.8656C106.037 73.8965 105.953 73.9571 105.892 74.0388C105.832 74.1204 105.799 74.219 105.798 74.3206C105.781 74.4994 105.816 74.6794 105.898 74.8393C105.979 74.9992 106.105 75.1325 106.26 75.2236C106.587 75.3243 106.93 75.3589 107.27 75.3253C107.61 75.2916 107.94 75.1904 108.241 75.0276L111.93 73.6276C112.086 73.5571 112.26 73.5375 112.427 73.5716C112.527 73.6101 112.617 73.6712 112.69 73.7501C112.763 73.829 112.817 73.9236 112.847 74.0266C112.889 74.1252 112.948 74.2154 113.022 74.2926C113.162 74.4046 113.407 74.3556 113.757 74.1526L116.732 72.3746C116.911 72.2409 117.132 72.174 117.355 72.1856C117.817 72.2556 117.922 72.7316 118.006 73.1166C118.027 73.228 118.055 73.3379 118.09 73.4456C118.236 73.7537 118.486 74.0004 118.796 74.1426C119.105 74.2847 119.455 74.313 119.784 74.2226C120.426 74.0284 121.022 73.7044 121.534 73.2706L121.695 73.1516C122.018 72.8747 122.419 72.7058 122.843 72.6686C123.141 72.6959 123.43 72.7866 123.69 72.9346H123.746C125.06 73.5626 126.49 73.9129 127.946 73.9636C127.845 73.7449 127.807 73.5028 127.834 73.2636C127.856 73.029 127.927 72.8015 128.041 72.5955C128.156 72.3895 128.312 72.2094 128.499 72.0666C128.833 71.8611 129.204 71.7248 129.591 71.6659C129.978 71.607 130.374 71.6266 130.753 71.7236C131.528 71.8726 132.267 72.1697 132.93 72.5986L133.154 72.7526C133.37 72.9177 133.605 73.0563 133.854 73.1656C134.652 73.3355 135.483 73.2216 136.206 72.8436L136.815 72.6196C138.81 71.9686 140.973 72.2626 142.877 72.5146L150.374 73.5226C150.397 73.5242 150.42 73.5307 150.441 73.5417C150.462 73.5527 150.48 73.5679 150.495 73.5864C150.509 73.6049 150.52 73.6262 150.525 73.6489C150.531 73.6717 150.532 73.6954 150.528 73.7186C150.521 73.7639 150.497 73.8046 150.46 73.8321C150.423 73.8596 150.377 73.8716 150.332 73.8656L142.835 72.8646C140.959 72.6126 138.838 72.3256 136.927 72.9556L136.325 73.1656C135.824 73.5179 135.222 73.6964 134.61 73.6736C133.998 73.6509 133.41 73.4282 132.937 73.0396L132.713 72.8926C132.09 72.486 131.393 72.2053 130.662 72.0666C130.329 71.9802 129.983 71.9611 129.643 72.0104C129.302 72.0597 128.976 72.1763 128.681 72.3536C128.534 72.4648 128.411 72.6059 128.322 72.7675C128.233 72.9291 128.179 73.1076 128.163 73.2916C128.148 73.4175 128.161 73.5451 128.199 73.6658C128.238 73.7865 128.302 73.8976 128.387 73.9916C128.409 74.0172 128.424 74.0485 128.429 74.082C128.435 74.1156 128.431 74.1499 128.418 74.1812C128.404 74.2125 128.383 74.2395 128.355 74.2592C128.328 74.2789 128.295 74.2905 128.261 74.2926C126.64 74.2835 125.042 73.9178 123.578 73.2216H123.522C123.308 73.095 123.069 73.0162 122.822 72.9906C122.479 73.035 122.157 73.1813 121.898 73.4106L121.737 73.5226C121.189 73.9919 120.547 74.3381 119.854 74.5376C119.443 74.6454 119.007 74.6049 118.623 74.4231C118.239 74.2413 117.931 73.9299 117.754 73.5436C117.719 73.4316 117.691 73.3056 117.663 73.1866C117.579 72.7946 117.509 72.5566 117.306 72.5286C117.164 72.5344 117.027 72.5832 116.914 72.6686L113.932 74.4466C113.75 74.5516 113.197 74.8806 112.798 74.5586C112.684 74.4497 112.594 74.3187 112.532 74.1736C112.462 74.0196 112.406 73.9216 112.329 73.9006C112.235 73.8886 112.14 73.9057 112.056 73.9496L108.367 75.3496C107.894 75.5534 107.39 75.6741 106.876 75.7066Z" fill="#263238"/>
<path d="M158.669 74.4116C158.505 74.4172 158.342 74.3759 158.2 74.2926C158.105 74.2327 158.027 74.1488 157.974 74.0493C157.921 73.9498 157.895 73.8382 157.899 73.7256C157.899 73.6421 157.922 73.5602 157.965 73.4888C158.009 73.4173 158.07 73.3588 158.144 73.3196C158.186 73.2996 158.234 73.2964 158.278 73.3107C158.323 73.325 158.36 73.3558 158.382 73.3966C158.402 73.4386 158.405 73.4866 158.391 73.5309C158.377 73.5752 158.346 73.6123 158.305 73.6346C158.285 73.6435 158.269 73.6586 158.259 73.6776C158.249 73.6966 158.246 73.7184 158.249 73.7396C158.248 73.7886 158.26 73.837 158.282 73.8808C158.303 73.9247 158.336 73.9626 158.375 73.9916C158.601 74.0765 158.849 74.0765 159.075 73.9916C160.401 73.736 161.712 73.4088 163.002 73.0116C163.646 72.8156 164.402 72.8086 164.605 73.3966C164.626 73.4675 164.64 73.5401 164.647 73.6136C164.653 73.6872 164.675 73.7587 164.71 73.8236C164.773 73.9076 164.948 73.9146 165.095 73.9146C166.981 73.8646 168.849 73.5367 170.639 72.9416C170.684 72.9267 170.732 72.9302 170.774 72.9512C170.816 72.9722 170.848 73.009 170.863 73.0536C170.878 73.0981 170.874 73.1468 170.853 73.1888C170.832 73.2308 170.796 73.2627 170.751 73.2776C168.927 73.8818 167.023 74.2143 165.102 74.2646C164.975 74.2862 164.844 74.2757 164.722 74.2342C164.6 74.1926 164.49 74.1213 164.402 74.0266C164.327 73.9194 164.283 73.7933 164.276 73.6626C164.271 73.6099 164.259 73.5582 164.241 73.5086C164.087 73.0466 163.177 73.3126 163.079 73.3476C161.777 73.7464 160.454 74.0758 159.117 74.3346C158.97 74.3741 158.82 74.3999 158.669 74.4116Z" fill="#263238"/>
<path d="M77.539 167.673C77.272 167.677 77.0078 167.617 76.769 167.498C76.5477 167.377 76.3671 167.194 76.25 166.971C76.1329 166.748 76.0845 166.495 76.111 166.245C76.1167 166.072 76.1775 165.905 76.2845 165.769C76.3915 165.633 76.5392 165.535 76.706 165.489C76.7289 165.48 76.7533 165.476 76.7778 165.477C76.8023 165.478 76.8263 165.485 76.8481 165.496C76.87 165.507 76.8893 165.522 76.9048 165.541C76.9203 165.56 76.9316 165.582 76.938 165.606C76.9444 165.63 76.9457 165.654 76.942 165.679C76.9382 165.703 76.9294 165.726 76.9161 165.747C76.9028 165.767 76.8853 165.785 76.8648 165.798C76.8443 165.812 76.8212 165.821 76.797 165.825C76.7003 165.855 76.6158 165.916 76.5554 165.998C76.4951 166.079 76.4621 166.178 76.461 166.28C76.4445 166.459 76.4792 166.64 76.5609 166.801C76.6426 166.962 76.7681 167.097 76.923 167.19C77.5842 167.387 78.2967 167.314 78.904 166.987L82.593 165.587C82.7486 165.516 82.9226 165.496 83.09 165.531C83.1902 165.569 83.2802 165.63 83.3531 165.709C83.4259 165.788 83.4796 165.883 83.51 165.986C83.5499 166.085 83.6094 166.176 83.685 166.252C83.825 166.364 84.07 166.315 84.385 166.112L87.36 164.334C87.5417 164.205 87.7609 164.141 87.983 164.152C88.445 164.215 88.55 164.691 88.634 165.076C88.6546 165.187 88.6826 165.297 88.718 165.405C88.8671 165.707 89.1173 165.949 89.4253 166.087C89.7333 166.225 90.0798 166.251 90.405 166.161C91.0455 165.967 91.639 165.643 92.148 165.209L92.316 165.09C92.5692 164.823 92.9086 164.656 93.2738 164.616C93.639 164.576 94.0065 164.667 94.311 164.873H94.36C95.675 165.499 97.1044 165.849 98.56 165.902C98.4632 165.682 98.4247 165.441 98.448 165.202C98.4745 164.964 98.5505 164.735 98.6711 164.529C98.7916 164.323 98.9541 164.144 99.148 164.005C99.4823 163.801 99.8536 163.666 100.241 163.607C100.628 163.548 101.022 163.567 101.402 163.662C102.177 163.811 102.916 164.108 103.579 164.537L103.796 164.691C104.229 165.041 104.764 165.24 105.321 165.256C105.877 165.273 106.424 165.106 106.876 164.782L107.485 164.558C109.473 163.914 111.643 164.201 113.547 164.453L121.044 165.461C121.067 165.462 121.09 165.469 121.111 165.48C121.132 165.491 121.15 165.506 121.165 165.524C121.179 165.543 121.19 165.564 121.195 165.587C121.201 165.61 121.202 165.633 121.198 165.657C121.189 165.701 121.165 165.741 121.128 165.768C121.092 165.795 121.047 165.808 121.002 165.804L113.484 164.873C111.608 164.621 109.487 164.341 107.576 164.964L106.974 165.174C106.18 165.597 105.258 165.714 104.384 165.503C104.098 165.385 103.828 165.232 103.579 165.048L103.362 164.901C102.737 164.497 102.041 164.217 101.311 164.075C100.978 163.99 100.632 163.971 100.292 164.021C99.952 164.07 99.6251 164.186 99.33 164.362C99.1833 164.473 99.0615 164.615 98.9724 164.776C98.8832 164.938 98.8286 165.116 98.812 165.3C98.7973 165.425 98.8096 165.553 98.8483 165.674C98.8869 165.795 98.9509 165.906 99.036 166C99.0583 166.025 99.0729 166.057 99.0783 166.09C99.0837 166.124 99.0796 166.158 99.0665 166.189C99.0534 166.221 99.0318 166.248 99.0041 166.267C98.9765 166.287 98.9439 166.298 98.91 166.301C97.2894 166.291 95.6908 165.925 94.227 165.23H94.171C93.9557 165.106 93.7176 165.027 93.471 164.999C93.1279 165.043 92.806 165.189 92.547 165.419L92.386 165.538C91.8362 166.002 91.1946 166.346 90.503 166.546C90.092 166.653 89.656 166.613 89.2719 166.431C88.8878 166.249 88.5802 165.938 88.403 165.552C88.368 165.44 88.34 165.321 88.312 165.195C88.228 164.803 88.158 164.565 87.955 164.537C87.8132 164.542 87.6765 164.591 87.563 164.677L84.581 166.455C84.399 166.56 83.881 166.896 83.447 166.567C83.3316 166.459 83.2408 166.328 83.181 166.182C83.111 166.028 83.062 165.93 82.978 165.909C82.8843 165.9 82.79 165.917 82.705 165.958L79.009 167.358C78.5406 167.546 78.0434 167.652 77.539 167.673Z" fill="#263238"/>
<path d="M129.332 166.343C129.168 166.348 129.005 166.307 128.863 166.224C128.768 166.164 128.69 166.08 128.637 165.98C128.584 165.881 128.558 165.769 128.562 165.657C128.562 165.573 128.585 165.491 128.628 165.42C128.672 165.348 128.733 165.29 128.807 165.251C128.849 165.231 128.897 165.227 128.941 165.242C128.986 165.256 129.023 165.287 129.045 165.328C129.065 165.37 129.068 165.418 129.054 165.462C129.04 165.506 129.009 165.543 128.968 165.566C128.948 165.575 128.932 165.59 128.922 165.609C128.912 165.628 128.909 165.649 128.912 165.671C128.911 165.72 128.922 165.768 128.944 165.812C128.966 165.856 128.998 165.894 129.038 165.923C129.264 166.007 129.512 166.007 129.738 165.923C131.064 165.67 132.375 165.342 133.665 164.943C134.309 164.747 135.065 164.74 135.268 165.328C135.289 165.398 135.303 165.471 135.31 165.545C135.316 165.618 135.338 165.69 135.373 165.755C135.436 165.839 135.611 165.846 135.758 165.846C137.634 165.793 139.493 165.465 141.274 164.873C141.319 164.858 141.367 164.861 141.409 164.882C141.451 164.903 141.483 164.94 141.498 164.985C141.513 165.029 141.509 165.078 141.488 165.12C141.467 165.162 141.431 165.194 141.386 165.209C139.562 165.813 137.658 166.145 135.737 166.196C135.61 166.219 135.48 166.21 135.358 166.169C135.235 166.129 135.125 166.059 135.037 165.965C134.961 165.855 134.917 165.727 134.911 165.594C134.918 165.542 134.918 165.491 134.911 165.44C134.757 164.978 133.847 165.244 133.742 165.279C132.442 165.677 131.122 166.007 129.787 166.266C129.638 166.306 129.486 166.332 129.332 166.343Z" fill="#263238"/>
<path d="M115.913 82.5316C115.19 82.5541 114.481 82.3348 113.897 81.9086C113.643 81.7096 113.437 81.456 113.295 81.1666C113.108 81.3105 112.897 81.4196 112.672 81.4886C112.135 81.6055 111.58 81.6067 111.043 81.492C110.506 81.3773 109.999 81.1495 109.557 80.8236C109.448 80.7357 109.318 80.68 109.179 80.6626C109.017 80.6976 108.871 80.7864 108.766 80.9146L108.276 81.3766C108.088 81.5551 107.86 81.6846 107.61 81.7536C107.361 81.8226 107.098 81.829 106.845 81.7722C106.592 81.7155 106.358 81.5973 106.162 81.4282C105.966 81.259 105.814 81.0442 105.721 80.8026L105.497 80.2356C103.329 81.0231 100.99 81.2188 98.721 80.8026C97.8948 81.2673 96.987 81.5691 96.047 81.6916C96.0204 81.6943 95.9936 81.6913 95.9682 81.6829C95.9429 81.6744 95.9196 81.6607 95.9 81.6426C95.8819 81.6241 95.8676 81.6022 95.858 81.5782C95.8484 81.5542 95.8436 81.5285 95.844 81.5026C95.8848 81.0347 95.7952 80.5646 95.585 80.1446C94.6739 80.553 93.6565 80.6608 92.68 80.4526L92.484 80.4106C92.2749 80.3483 92.0582 80.3153 91.84 80.3126C91.5063 80.3537 91.1859 80.4684 90.902 80.6486L90.566 80.8376C89.9239 81.2494 89.2123 81.5411 88.466 81.6986C88.0397 81.7863 87.5971 81.7483 87.192 81.5892C86.7869 81.4302 86.4367 81.1569 86.184 80.8026C85.7526 81.1569 85.2005 81.33 84.644 81.2856C84.4458 81.2424 84.2635 81.1449 84.1176 81.004C83.9717 80.863 83.868 80.6842 83.818 80.4876C83.7727 80.3511 83.7706 80.2039 83.8119 80.0661C83.8533 79.9283 83.936 79.8067 84.049 79.7176C84.0825 79.6871 84.1262 79.6702 84.1715 79.6702C84.2168 79.6702 84.2605 79.6871 84.294 79.7176C84.3206 79.7564 84.3317 79.8038 84.3252 79.8504C84.3188 79.897 84.2951 79.9395 84.259 79.9696C84.2041 80.0199 84.165 80.085 84.1464 80.157C84.1277 80.2291 84.1304 80.305 84.154 80.3756C84.188 80.5063 84.2566 80.6254 84.3527 80.7203C84.4489 80.8152 84.5688 80.8823 84.7 80.9146C85.2333 80.9216 85.7499 80.7294 86.149 80.3756C86.1721 80.3654 86.1972 80.3601 86.2225 80.3601C86.2478 80.3601 86.2728 80.3654 86.296 80.3756C86.3456 80.3946 86.3858 80.4323 86.408 80.4806C86.6062 80.8195 86.9067 81.0869 87.2665 81.2441C87.6263 81.4013 88.0266 81.4404 88.41 81.3556C89.1063 81.196 89.7695 80.9165 90.37 80.5296L90.706 80.3406C91.0352 80.1305 91.4093 80.001 91.798 79.9626C92.0489 79.9642 92.2985 79.9995 92.54 80.0676L92.722 80.1096C93.6802 80.3129 94.6791 80.1871 95.557 79.7526C95.5976 79.7355 95.6429 79.7331 95.6851 79.7459C95.7273 79.7587 95.7637 79.7858 95.788 79.8226C96.0453 80.2774 96.1803 80.7911 96.18 81.3136C97.023 81.1796 97.8343 80.8925 98.574 80.4666C98.6124 80.4527 98.6545 80.4527 98.693 80.4666C100.975 80.9001 103.333 80.6917 105.504 79.8646C105.549 79.8486 105.598 79.8506 105.641 79.8702C105.684 79.8898 105.718 79.9255 105.735 79.9696L106.022 80.6696C106.095 80.8565 106.212 81.0226 106.364 81.1535C106.516 81.2844 106.698 81.376 106.893 81.4202C107.089 81.4644 107.292 81.46 107.486 81.4072C107.679 81.3544 107.857 81.255 108.003 81.1176L108.5 80.6486C108.665 80.4584 108.894 80.3362 109.144 80.3056C109.349 80.3197 109.546 80.3926 109.711 80.5156C110.109 80.8083 110.563 81.0159 111.045 81.1255C111.526 81.2351 112.026 81.2443 112.511 81.1526C112.726 81.0806 112.925 80.969 113.099 80.8236C113.023 80.5979 112.983 80.3617 112.98 80.1236C112.965 79.8582 113.013 79.5931 113.12 79.3498C113.227 79.1065 113.39 78.8919 113.596 78.7236C113.637 78.6945 113.687 78.682 113.736 78.6886C113.759 78.6925 113.781 78.7014 113.801 78.7147C113.82 78.728 113.836 78.7454 113.848 78.7656C113.978 78.9726 114.056 79.2073 114.078 79.4505C114.1 79.6938 114.064 79.9388 113.974 80.1656C113.868 80.4416 113.709 80.6938 113.505 80.9076C113.633 81.1802 113.822 81.4197 114.058 81.6076C114.51 81.8907 115.019 82.0712 115.549 82.1365C116.079 82.2018 116.616 82.1503 117.124 81.9856C117.657 81.8399 118.18 81.6622 118.692 81.4536C120.023 80.8953 121.448 80.5937 122.892 80.5646C123.585 80.5272 124.274 80.4477 124.957 80.3266L125.762 80.1446C126.931 79.8646 128.135 79.5846 129.199 80.1446C129.22 80.155 129.238 80.1694 129.254 80.1871C129.269 80.2047 129.28 80.2252 129.288 80.2474C129.295 80.2696 129.297 80.2929 129.295 80.3162C129.293 80.3394 129.287 80.362 129.276 80.3826C129.265 80.4029 129.25 80.4207 129.232 80.4352C129.214 80.4497 129.194 80.4605 129.172 80.4671C129.149 80.4736 129.126 80.4756 129.103 80.4732C129.08 80.4707 129.058 80.4637 129.038 80.4526C128.093 79.9556 126.938 80.2216 125.846 80.4876L125.027 80.6696C124.332 80.7887 123.631 80.8705 122.927 80.9146C122.088 80.9567 121.255 81.0691 120.435 81.2506C119.903 81.3995 119.38 81.5771 118.867 81.7826C118.341 81.9949 117.804 82.1772 117.257 82.3286C116.819 82.449 116.367 82.5171 115.913 82.5316ZM113.715 79.1576C113.491 79.4231 113.374 79.7624 113.386 80.1096C113.385 80.2511 113.401 80.3921 113.435 80.5296C113.546 80.3847 113.636 80.2244 113.701 80.0536C113.81 79.7658 113.815 79.4487 113.715 79.1576Z" fill="#263238"/>
<path d="M141.764 81.9226C141.558 81.9225 141.352 81.9085 141.148 81.8806C141.101 81.8731 141.058 81.8481 141.029 81.8106C141.019 81.7898 141.014 81.7671 141.014 81.7441C141.014 81.7211 141.019 81.6984 141.029 81.6776C141.084 81.3625 141.065 81.039 140.973 80.7326C139.121 81.5065 137.079 81.7017 135.114 81.2926C135.086 81.288 135.059 81.2758 135.037 81.2574C135.014 81.2389 134.998 81.2148 134.988 81.1876C134.975 81.1629 134.967 81.1352 134.967 81.1071C134.967 81.079 134.975 81.0513 134.988 81.0266L135.52 80.2496C135.532 80.2304 135.548 80.2137 135.567 80.2008C135.585 80.1878 135.606 80.1788 135.629 80.1742C135.651 80.1696 135.674 80.1696 135.696 80.1741C135.718 80.1787 135.739 80.1877 135.758 80.2006C135.778 80.2133 135.794 80.2298 135.807 80.2491C135.82 80.2683 135.829 80.29 135.834 80.3128C135.839 80.3356 135.838 80.3591 135.834 80.3819C135.829 80.4047 135.82 80.4264 135.807 80.4456L135.422 81.0056C137.3 81.342 139.235 81.1105 140.98 80.3406C141.002 80.3301 141.026 80.3246 141.05 80.3246C141.074 80.3246 141.098 80.3301 141.12 80.3406C141.163 80.3568 141.199 80.3895 141.218 80.4316C141.359 80.7894 141.412 81.176 141.372 81.5586C142.926 81.7056 144.41 80.9076 145.838 80.1586C146.251 79.9346 146.671 79.7036 147.091 79.5006C147.315 79.3631 147.582 79.3132 147.84 79.3606C148.103 79.4687 148.314 79.6744 148.428 79.9346C148.459 79.9953 148.494 80.0538 148.533 80.1096C149.086 80.9426 150.36 80.9216 151.333 80.7606C151.639 80.6947 151.954 80.6805 152.264 80.7186C152.49 80.7755 152.707 80.8651 152.908 80.9846L153.118 81.0896C154.28 81.6496 155.792 81.4606 157.745 80.5156C158.676 80.0606 159.747 79.6266 160.58 80.2006C160.602 80.212 160.621 80.228 160.637 80.2474C160.652 80.2668 160.663 80.2893 160.669 80.3132C160.675 80.3372 160.676 80.3622 160.671 80.3866C160.667 80.4109 160.658 80.4341 160.644 80.4545C160.63 80.4749 160.612 80.4921 160.59 80.505C160.569 80.518 160.546 80.5262 160.521 80.5294C160.497 80.5325 160.472 80.5304 160.448 80.5232C160.425 80.516 160.403 80.5039 160.384 80.4876C159.684 80.0186 158.739 80.4176 157.892 80.8306C155.841 81.8246 154.231 82.0136 152.992 81.4046L152.775 81.2926C152.603 81.1934 152.42 81.1158 152.229 81.0616C151.972 81.028 151.711 81.0422 151.459 81.1036C149.884 81.3626 148.799 81.1036 148.274 80.3056L148.155 80.1166C148.043 79.9276 147.938 79.7456 147.777 79.6966C147.603 79.6774 147.427 79.7195 147.28 79.8156C146.867 80.0186 146.447 80.2426 146.041 80.4666C144.648 81.1666 143.262 81.9226 141.764 81.9226Z" fill="#263238"/>
<path d="M83.062 96.0766H82.894C82.6752 96.0133 82.4827 95.8809 82.3452 95.6993C82.2077 95.5176 82.1326 95.2964 82.131 95.0686C82.1444 94.6638 82.2472 94.267 82.432 93.9066C82.4412 93.8854 82.4544 93.8663 82.471 93.8502C82.4876 93.8342 82.5071 93.8215 82.5286 93.8131C82.5501 93.8046 82.573 93.8005 82.5961 93.8009C82.6191 93.8014 82.6419 93.8064 82.663 93.8156C82.7046 93.8355 82.7372 93.8703 82.754 93.9132C82.7709 93.9561 82.7709 94.0038 82.754 94.0466C82.5912 94.359 82.4981 94.7029 82.481 95.0546C82.4735 95.2082 82.5168 95.3599 82.604 95.4864C82.6913 95.6129 82.8178 95.7072 82.964 95.7546C83.1501 95.7733 83.3376 95.7368 83.503 95.6496C84.2302 95.3533 84.8794 94.8934 85.4 94.3056C85.4223 94.2784 85.4522 94.2585 85.4859 94.2485C85.5196 94.2385 85.5556 94.2389 85.589 94.2496C85.883 94.3476 85.925 94.6416 85.967 94.8796C85.9724 95.0108 86.011 95.1384 86.079 95.2506C86.177 95.3556 86.38 95.3626 86.695 95.2506C87.7784 94.9059 88.8378 94.4897 89.866 94.0046C90.1819 93.8379 90.5472 93.7907 90.895 93.8716C90.9669 93.8982 91.0326 93.9393 91.088 93.9922C91.1434 94.0452 91.1873 94.109 91.217 94.1796C91.2585 94.2963 91.2775 94.4199 91.273 94.5436C91.2639 94.6329 91.2809 94.7229 91.322 94.8026C91.385 94.8726 91.532 94.8796 91.777 94.8026L94.577 94.0396C95.1415 93.8232 95.7566 93.7746 96.348 93.8996C96.5323 93.9596 96.702 94.0571 96.8466 94.186C96.9912 94.3149 97.1075 94.4725 97.188 94.6486C97.2777 94.846 97.2998 95.0674 97.251 95.2786C97.7085 95.4524 98.2005 95.5158 98.6871 95.4635C99.1736 95.4112 99.641 95.2447 100.051 94.9776C100.07 94.9645 100.092 94.9554 100.115 94.9508C100.138 94.9462 100.161 94.9461 100.184 94.9507C100.207 94.9553 100.228 94.9643 100.248 94.9774C100.267 94.9904 100.283 95.0072 100.296 95.0266C100.321 95.066 100.329 95.1133 100.32 95.1589C100.311 95.2044 100.285 95.2448 100.247 95.2716C99.768 95.5802 99.2201 95.7653 98.6521 95.8105C98.0841 95.8557 97.5138 95.7595 96.992 95.5306C96.9699 95.5232 96.95 95.5103 96.9341 95.4932C96.9182 95.4761 96.9068 95.4553 96.901 95.4326C96.8906 95.412 96.8851 95.3892 96.8851 95.3661C96.8851 95.343 96.8906 95.3202 96.901 95.2996C96.9381 95.2195 96.9572 95.1324 96.9572 95.0441C96.9572 94.9559 96.9381 94.8687 96.901 94.7886C96.8401 94.6591 96.7534 94.5432 96.6463 94.4482C96.5392 94.3531 96.4139 94.2808 96.278 94.2356C95.7501 94.1376 95.2054 94.186 94.703 94.3756L91.903 95.1456C91.763 95.1456 91.322 95.3066 91.084 95.0126C90.9874 94.8763 90.9427 94.71 90.958 94.5436C90.9708 94.4672 90.9708 94.3891 90.958 94.3126C90.9333 94.2563 90.8884 94.2113 90.832 94.1866C90.5722 94.1399 90.3043 94.1871 90.076 94.3196C89.0329 94.8076 87.9597 95.2284 86.863 95.5796C86.695 95.6286 86.163 95.7966 85.883 95.4606C85.7631 95.3026 85.6925 95.1126 85.68 94.9146C85.6711 94.819 85.65 94.7249 85.617 94.6346C85.0812 95.2095 84.4268 95.661 83.699 95.9576C83.4973 96.0412 83.2803 96.0818 83.062 96.0766Z" fill="#263238"/>
<path d="M108.017 97.4976C107.839 97.5226 107.657 97.4836 107.505 97.3875C107.352 97.2914 107.239 97.1444 107.184 96.9726C107.133 96.7028 107.137 96.4254 107.196 96.1571C107.255 95.8888 107.368 95.6353 107.527 95.4116C107.007 95.6147 106.454 95.7191 105.896 95.7197C105.582 95.7472 105.266 95.691 104.981 95.557C104.696 95.423 104.451 95.2159 104.272 94.9566C104.183 94.7796 104.146 94.581 104.166 94.3839C104.186 94.1868 104.262 93.9994 104.384 93.8436C104.464 93.7182 104.581 93.6214 104.72 93.5673C104.858 93.5132 105.01 93.5046 105.154 93.5427C105.199 93.5557 105.237 93.5856 105.26 93.626C105.284 93.6664 105.291 93.7142 105.28 93.7596C105.274 93.7823 105.264 93.8037 105.25 93.8224C105.236 93.8411 105.218 93.8567 105.198 93.8685C105.178 93.8802 105.156 93.8878 105.132 93.8907C105.109 93.8937 105.086 93.892 105.063 93.8856C104.987 93.8711 104.908 93.88 104.836 93.9113C104.765 93.9425 104.705 93.9946 104.664 94.0606C104.588 94.1588 104.54 94.2753 104.524 94.3983C104.508 94.5213 104.525 94.6464 104.573 94.7606C104.731 94.9588 104.934 95.1158 105.166 95.2181C105.397 95.3205 105.65 95.3653 105.903 95.3486H105.945C106.674 95.3461 107.389 95.1426 108.01 94.7606C108.214 94.55 108.451 94.3729 108.71 94.2356C108.748 94.2162 108.791 94.2112 108.833 94.2215C108.874 94.2318 108.91 94.2567 108.934 94.2916C108.961 94.3242 108.975 94.365 108.975 94.4072C108.975 94.4493 108.961 94.4901 108.934 94.5226C108.718 94.7161 108.484 94.8873 108.234 95.0336C107.99 95.2631 107.8 95.5445 107.679 95.8571C107.558 96.1696 107.508 96.5054 107.534 96.8396C107.611 97.0776 107.849 97.1686 108.234 97.1056C109.522 96.6114 110.708 95.8854 111.734 94.9636L112.504 94.3546C112.535 94.3339 112.572 94.3228 112.609 94.3228C112.646 94.3228 112.683 94.3339 112.714 94.3546C112.746 94.3748 112.769 94.4055 112.781 94.4413C112.792 94.4771 112.791 94.5158 112.777 94.5506L112.406 95.6916C114.113 95.5605 115.746 94.9408 117.11 93.9066C117.147 93.8788 117.194 93.8668 117.24 93.8734C117.286 93.88 117.327 93.9045 117.355 93.9416C117.383 93.9788 117.395 94.0255 117.388 94.0714C117.382 94.1173 117.357 94.1588 117.32 94.1866C116.843 94.5613 116.504 95.083 116.354 95.6706L120.75 94.6486C120.857 94.6117 120.97 94.5981 121.082 94.609C121.195 94.6199 121.303 94.6549 121.401 94.7116C121.54 94.8394 121.627 95.0138 121.646 95.2016C121.643 95.2436 121.643 95.2857 121.646 95.3276C121.856 96.1046 123.046 96.1326 123.571 96.1046C124.468 96.1174 125.358 95.9409 126.182 95.5866C126.756 95.355 127.342 95.1563 127.939 94.9916C128.013 94.9784 128.089 94.9844 128.16 95.0089C128.231 95.0334 128.295 95.0756 128.345 95.1316C128.492 95.3206 128.401 95.6076 128.303 95.9086C128.205 96.2096 128.142 96.4197 128.226 96.4967C128.31 96.5737 128.401 96.6226 129.108 96.3916L132.881 94.1726C133.272 93.8909 133.737 93.7302 134.218 93.7106C134.529 93.7665 134.826 93.8846 135.091 94.0577C135.355 94.2309 135.582 94.4557 135.758 94.7186L135.828 94.8096C136.109 95.2395 136.507 95.5797 136.976 95.7896C137.117 95.8276 137.264 95.8315 137.407 95.8011C137.549 95.7707 137.682 95.7068 137.795 95.6146C137.862 95.5649 137.915 95.499 137.949 95.4231C137.984 95.3471 137.998 95.2637 137.991 95.1806C137.984 95.1409 137.991 95.1 138.012 95.0653C138.032 95.0306 138.065 95.0045 138.103 94.9916C138.142 94.9805 138.183 94.9819 138.221 94.9957C138.258 95.0096 138.291 95.0351 138.313 95.0686C138.611 95.5416 139.045 95.9128 139.559 96.1326C139.916 96.0696 140.084 95.6846 140.259 95.2366C140.325 94.9935 140.441 94.7668 140.601 94.5715C140.76 94.3761 140.958 94.2164 141.183 94.1026C141.516 94.0202 141.866 94.0447 142.184 94.1726C146.734 95.3696 151.683 94.8726 156.044 94.3616C156.067 94.3587 156.09 94.3604 156.113 94.3666C156.135 94.3728 156.156 94.3833 156.174 94.3976C156.192 94.412 156.208 94.4298 156.219 94.45C156.23 94.4703 156.237 94.4926 156.24 94.5157C156.244 94.5618 156.23 94.6077 156.202 94.6441C156.173 94.6806 156.132 94.7047 156.086 94.7116C151.69 95.1876 146.706 95.7266 142.086 94.5157C141.833 94.4151 141.555 94.3908 141.288 94.4456C140.931 94.5646 140.756 94.9636 140.588 95.3907C140.42 95.8177 140.126 96.4406 139.545 96.5036C139.518 96.5145 139.488 96.5145 139.461 96.5036C138.988 96.3113 138.57 96.006 138.243 95.6146C138.186 95.7289 138.105 95.8293 138.005 95.9086C137.849 96.0407 137.662 96.1321 137.462 96.1748C137.261 96.2175 137.054 96.2103 136.857 96.1536C136.321 95.9226 135.864 95.5408 135.541 95.0546L135.471 94.9706C135.328 94.7451 135.14 94.5507 134.92 94.3992C134.7 94.2476 134.452 94.142 134.19 94.0886C133.775 94.1097 133.375 94.2534 133.042 94.5016L129.241 96.7416C128.541 96.9656 128.163 96.9726 127.96 96.7766C127.757 96.5806 127.855 96.1676 127.96 95.8316C128.002 95.6916 128.086 95.4327 128.051 95.3697H127.974C127.403 95.531 126.842 95.725 126.294 95.9506C125.435 96.3138 124.511 96.4972 123.578 96.4896C122.325 96.5526 121.478 96.1746 121.296 95.4536C121.281 95.4055 121.269 95.3564 121.261 95.3066C121.252 95.2043 121.213 95.1068 121.149 95.0266C121.072 94.9706 120.925 95.0266 120.792 95.0266L116.123 96.1046C116.095 96.1122 116.065 96.1123 116.037 96.105C116.009 96.0976 115.983 96.083 115.962 96.0626C115.94 96.044 115.924 96.0198 115.916 95.9926C115.907 95.9654 115.906 95.9363 115.913 95.9086C115.97 95.5429 116.096 95.1913 116.284 94.8726C115.018 95.5907 113.601 96.0008 112.147 96.0697C112.119 96.0708 112.09 96.065 112.065 96.0528C112.039 96.0406 112.017 96.0224 112 95.9996C111.987 95.975 111.979 95.9473 111.979 95.9191C111.979 95.891 111.987 95.8633 112 95.8386L112.273 95.0056L111.958 95.2576C110.903 96.2044 109.684 96.9494 108.36 97.4556C108.247 97.4814 108.133 97.4955 108.017 97.4976Z" fill="#263238"/>
</svg>
